<svg xmlns="http://www.w3.org/2000/svg" xmlns:xlink="http://www.w3.org/1999/xlink" width="40" height="112"><defs><path id="a" d="M11.06 5.53L8 8.583 4.94 5.53 4 6.47l4 4 4-4z"/><path id="c" d="M12.667 4.273l-.94-.94L8 7.06 4.273 3.333l-.94.94L7.06 8l-3.727 3.727.94.94L8 8.94l3.727 3.727.94-.94L8.94 8z"/></defs><g fill="none" fill-rule="evenodd"><path d="M0 0h40v40H0z"/><path fill="#4285F4" fill-rule="nonzero" d="M30.094 21.215c0-.672-.06-1.318-.172-1.938H21v3.665h5.098a4.358 4.358 0 0 1-1.89 2.86v2.376h3.062c1.79-1.65 2.824-4.078 2.824-6.963z"/><path fill="#34A853" fill-rule="nonzero" d="M21 30.473c2.558 0 4.702-.848 6.27-2.295l-3.062-2.377c-.849.569-1.934.904-3.208.904-2.468 0-4.556-1.666-5.301-3.905h-3.165v2.454A9.47 9.47 0 0 0 21 30.474z"/><path fill="#FBBC05" fill-rule="nonzero" d="M15.699 22.8a5.695 5.695 0 0 1-.297-1.8c0-.625.107-1.232.297-1.8v-2.455h-3.165A9.47 9.47 0 0 0 11.526 21a9.47 9.47 0 0 0 1.008 4.254l3.165-2.454z"/><path fill="#EA4335" fill-rule="nonzero" d="M21 15.294c1.39 0 2.64.478 3.621 1.417l2.717-2.718c-1.64-1.528-3.785-2.467-6.338-2.467a9.47 9.47 0 0 0-8.466 5.22l3.165 2.454c.745-2.24 2.833-3.906 5.3-3.906z"/><path d="M11.526 11.526h18.947v18.947H11.526z"/><g><path fill="#4267B2" d="M0 40h40v40H0z"/><path fill="#FFF" fill-rule="nonzero" d="M30.688 48H9.323C8.589 48 8 48.59 8 49.323v21.365c0 .734.59 1.323 1.323 1.323h11.505v-9.293h-3.135v-3.624h3.124v-2.668c0-3.101 1.89-4.791 4.658-4.791 1.322 0 2.467.1 2.8.145v3.245h-1.922c-1.5 0-1.801.712-1.801 1.768v2.312h3.59l-.466 3.624h-3.113v9.282h6.114c.734 0 1.323-.59 1.323-1.323V49.323A1.303 1.303 0 0 0 30.688 48z"/></g><g><path d="M0 80h16v16H0z"/><path fill="#000" fill-rule="nonzero" d="M7.993 81.333A6.663 6.663 0 0 0 1.333 88c0 3.68 2.98 6.667 6.66 6.667A6.67 6.67 0 0 0 14.667 88a6.67 6.67 0 0 0-6.674-6.667zm4.62 4h-1.966a10.433 10.433 0 0 0-.92-2.373 5.353 5.353 0 0 1 2.886 2.373zM8 82.693c.553.8.987 1.687 1.273 2.64H6.727c.286-.953.72-1.84 1.273-2.64zm-5.16 6.64A5.495 5.495 0 0 1 2.667 88c0-.46.066-.907.173-1.333h2.253C5.04 87.107 5 87.547 5 88c0 .453.04.893.093 1.333H2.84zm.547 1.334h1.966c.214.833.52 1.633.92 2.373a5.325 5.325 0 0 1-2.886-2.373zm1.966-5.334H3.387a5.325 5.325 0 0 1 2.886-2.373c-.4.74-.706 1.54-.92 2.373zM8 93.307a9.391 9.391 0 0 1-1.273-2.64h2.546A9.391 9.391 0 0 1 8 93.307zm1.56-3.974H6.44c-.06-.44-.107-.88-.107-1.333 0-.453.047-.9.107-1.333h3.12c.06.433.107.88.107 1.333 0 .453-.047.893-.107 1.333zm.167 3.707c.4-.74.706-1.54.92-2.373h1.966a5.353 5.353 0 0 1-2.886 2.373zm1.18-3.707c.053-.44.093-.88.093-1.333 0-.453-.04-.893-.093-1.333h2.253c.107.426.173.873.173 1.333 0 .46-.066.907-.173 1.333h-2.253z"/></g><g transform="translate(16 80)"><mask id="b" fill="#fff"><use xlink:href="#a"/></mask><g fill="#000" fill-opacity=".87" mask="url(#b)"><path d="M0 0h16v16H0z"/></g></g><g transform="translate(0 96)"><mask id="d" fill="#fff"><use xlink:href="#c"/></mask><g fill="#000" fill-opacity=".87" mask="url(#d)"><path d="M0 0h16v16H0z"/></g></g></g></svg>