<?xml version="1.0" encoding="UTF-8" standalone="no"?>
<svg
   xmlns:dc="http://purl.org/dc/elements/1.1/"
   xmlns:cc="http://creativecommons.org/ns#"
   xmlns:rdf="http://www.w3.org/1999/02/22-rdf-syntax-ns#"
   xmlns:svg="http://www.w3.org/2000/svg"
   xmlns="http://www.w3.org/2000/svg"
   xml:space="preserve"
   enable-background="new 0 0 864 864"
   viewBox="0 0 864 864"
   y="0px"
   x="0px"
   id="Layer_1"
   version="1.1"><metadata
   id="metadata1253"><rdf:RDF><cc:Work
       rdf:about=""><dc:format>image/svg+xml</dc:format><dc:type
         rdf:resource="http://purl.org/dc/dcmitype/StillImage" /><dc:title></dc:title></cc:Work></rdf:RDF></metadata><defs
   id="defs1251" />
<g
   style="fill:#c87137"
   id="g1246">
	<path
   style="fill:#c87137"
   id="path1080"
   d="m 296.1863,545.6201 c 4.8784,-2.9693 10.6233,-5.1172 16.5292,-7.0488 5.9225,-1.9407 12.0948,-3.6035 18.3059,-5.5879 3.1113,-0.972 6.2368,-2.0333 9.3515,-3.2284 3.128,-1.1706 6.237,-2.5026 9.3118,-4.0305 3.0725,-1.4819 6.1518,-3.2708 9.009,-5.212 2.8814,-1.9467 5.6971,-4.0598 8.3028,-6.5021 2.6218,-2.4114 5.0864,-5.0923 7.2179,-8.1094 2.1357,-3.0081 3.9647,-6.3494 5.1764,-10.014 1.2352,-3.6452 1.8194,-7.6282 1.4659,-11.6205 -0.3391,-3.9861 -1.7138,-7.9567 -4.1179,-11.2938 -2.3894,-3.3033 -5.9265,-6.076 -10.1805,-6.9488 -2.0951,-0.4582 -4.3047,-0.4286 -6.3424,0.07 -0.5121,0.1161 -1.0067,0.2787 -1.4966,0.4432 -0.4857,0.1861 -0.9719,0.3799 -1.3342,0.5637 -0.7919,0.3564 -1.568,0.7672 -2.3314,1.1939 -3.0298,1.739 -5.9497,3.9507 -8.026,6.9145 -2.0636,2.9428 -3.2434,6.5555 -2.5529,10.0904 0.0534,0.2726 0.2794,0.4909 0.57,0.5208 0.3563,0.0367 0.6748,-0.2223 0.7115,-0.5786 l 0.0113,-0.1104 c 0.1444,-1.4028 0.6569,-2.8914 1.3885,-4.1273 0.7139,-1.2659 1.6528,-2.3709 2.7202,-3.3182 2.1648,-1.8744 4.7675,-3.2034 7.5675,-4.0909 0.7071,-0.2107 1.4062,-0.4271 2.1222,-0.6155 0.3818,-0.1155 0.6607,-0.1603 0.9389,-0.2165 0.2861,-0.0349 0.5668,-0.0777 0.8475,-0.0844 1.1191,-0.0569 2.1911,0.1431 3.1779,0.5688 1.9667,0.8448 3.6401,2.5 4.6978,4.5626 1.08,2.0627 1.4874,4.481 1.4251,6.8878 -0.0883,2.4226 -0.7287,4.8641 -1.7801,7.2017 -2.1267,4.6877 -5.8661,8.89 -10.2803,12.4685 -2.2148,1.7868 -4.6033,3.4471 -7.0954,4.9924 -1.2622,0.7704 -2.5196,1.5048 -3.8115,2.177 -1.2855,0.6925 -2.5952,1.3778 -3.9387,2.021 -2.6851,1.2885 -5.4784,2.4715 -8.3121,3.6568 -2.8532,1.1469 -5.7566,2.2697 -8.7041,3.3925 -5.9012,2.2206 -11.954,4.4376 -18.0719,6.9084 -6.0997,2.5084 -12.3113,5.2457 -18.2338,9.2302 -2.937,2.0148 -5.7972,4.3874 -8.2485,7.3038 -2.4579,2.8956 -4.4214,6.3957 -5.5366,10.1016 -1.1445,3.7063 -1.4536,7.5332 -1.2378,11.1607 0.23,3.657 0.8849,7.0625 1.9328,10.509 1.0507,3.4304 2.6497,6.8296 4.9435,9.8647 2.2961,3.0239 5.3788,5.6071 8.8962,7.2038 3.5109,1.6188 7.3306,2.2632 10.9848,2.1749 3.667,-0.0872 7.2029,-0.8568 10.5066,-2.0831 6.572,-2.5141 12.4088,-6.7196 16.5357,-12.4688 2.032,-2.8774 3.5918,-6.2184 4.1445,-9.8417 0.581,-3.6093 -0.017,-7.4413 -1.6348,-10.6457 -0.8132,-1.629 -1.7445,-2.983 -2.7888,-4.385 -1.0562,-1.3676 -2.282,-2.6265 -3.645,-3.7302 -2.713,-2.2178 -6.1804,-3.6524 -9.7038,-3.7698 -3.5196,-0.1296 -6.9706,0.9173 -9.8172,2.7877 -2.8174,1.8787 -5.1913,4.6255 -6.0193,7.996 -0.0796,0.3276 0.1047,0.6687 0.4305,0.7752 0.3422,0.1119 0.7104,-0.0748 0.8222,-0.4171 l 0.006,-0.0175 c 0.9341,-2.8571 3.2187,-5.1396 5.8215,-6.597 2.6287,-1.4534 5.671,-2.0959 8.5544,-1.7637 2.8942,0.3021 5.5797,1.6232 7.7011,3.5994 2.131,1.9387 3.8074,4.5576 4.9688,7.1965 1.0941,2.614 1.3201,5.442 0.7059,8.1356 -0.5998,2.6992 -1.9788,5.251 -3.7931,7.483 -3.6583,4.471 -8.9132,7.739 -14.42,9.4332 -5.4949,1.7101 -11.4695,1.6787 -15.9865,-0.7686 -2.2609,-1.2014 -4.1388,-2.9683 -5.6,-5.1315 -1.4556,-2.1735 -2.4881,-4.7288 -3.1882,-7.4553 -0.6952,-2.7208 -1.1164,-5.6791 -1.1476,-8.429 -0.0321,-2.7711 0.3431,-5.4199 1.214,-7.8096 1.6689,-4.8011 5.4813,-8.5808 10.36,-11.5377 z" />
	<path
   style="fill:#c87137"
   id="path1082"
   d="m 576.5468,544.0499 c -2.4511,-2.9164 -5.3115,-5.289 -8.2485,-7.3038 -5.9224,-3.9845 -12.1342,-6.7219 -18.2337,-9.2302 -6.118,-2.4709 -12.1708,-4.6879 -18.072,-6.9084 -2.9474,-1.1228 -5.851,-2.2456 -8.704,-3.3925 -2.8337,-1.1853 -5.627,-2.3683 -8.3121,-3.6568 -1.3435,-0.6432 -2.6532,-1.3286 -3.9388,-2.021 -1.2918,-0.6722 -2.5492,-1.4066 -3.8114,-2.177 -2.4921,-1.5453 -4.8806,-3.2056 -7.0954,-4.9924 -4.4141,-3.5785 -8.1536,-7.7808 -10.2804,-12.4685 -1.0513,-2.3376 -1.6917,-4.7791 -1.78,-7.2017 -0.0623,-2.4068 0.3451,-4.8251 1.4251,-6.8878 1.0577,-2.0626 2.7311,-3.7178 4.6978,-4.5626 0.9867,-0.4256 2.0586,-0.6256 3.1779,-0.5688 0.2805,0.007 0.5613,0.0495 0.8474,0.0844 0.2781,0.0562 0.5572,0.101 0.939,0.2165 0.716,0.1884 1.4151,0.4048 2.1221,0.6155 2.7999,0.8875 5.4027,2.2165 7.5675,4.0909 1.0674,0.9473 2.0064,2.0523 2.7203,3.3182 0.7316,1.236 1.244,2.7245 1.3883,4.1273 l 0.0114,0.1104 c 0.0366,0.3563 0.3552,0.6153 0.7114,0.5786 0.2907,-0.0298 0.5166,-0.2481 0.5701,-0.5208 0.6904,-3.535 -0.4893,-7.1476 -2.553,-10.0904 -2.0763,-2.9638 -4.9961,-5.1756 -8.026,-6.9145 -0.7634,-0.4267 -1.5394,-0.8375 -2.3314,-1.1939 -0.3623,-0.1838 -0.8484,-0.3776 -1.3341,-0.5637 -0.4899,-0.1645 -0.9845,-0.3271 -1.4967,-0.4432 -2.0377,-0.4986 -4.2473,-0.5282 -6.3422,-0.07 -4.2541,0.8728 -7.7912,3.6455 -10.1806,6.9488 -2.404,3.3371 -3.7788,7.3077 -4.1179,11.2938 -0.3535,3.9923 0.2309,7.9753 1.466,11.6205 1.2117,3.6647 3.0408,7.0059 5.1764,10.014 2.1314,3.0171 4.5961,5.698 7.2179,8.1094 2.6057,2.4424 5.4214,4.5555 8.3028,6.5021 2.8572,1.9412 5.9365,3.7302 9.009,5.212 3.0749,1.5279 6.1838,2.8599 9.3118,4.0305 3.1147,1.1951 6.2403,2.2563 9.3516,3.2284 6.2111,1.9844 12.3834,3.6472 18.3059,5.5879 5.9059,1.9315 11.6508,4.0795 16.5292,7.0488 4.8788,2.9568 8.691,6.7366 10.3604,11.5375 0.8709,2.3897 1.2462,5.0386 1.214,7.8096 -0.0313,2.7499 -0.4524,5.7083 -1.1476,8.429 -0.7002,2.7265 -1.7326,5.2819 -3.1883,7.4553 -1.4611,2.1631 -3.339,3.9301 -5.5999,5.1315 -4.517,2.4473 -10.4918,2.4787 -15.9866,0.7686 -5.5069,-1.6943 -10.7618,-4.9622 -14.42,-9.4332 -1.8143,-2.2321 -3.1934,-4.7839 -3.7932,-7.483 -0.6142,-2.6935 -0.3882,-5.5216 0.7059,-8.1356 1.1614,-2.6389 2.8379,-5.2579 4.9688,-7.1965 2.1214,-1.9762 4.8068,-3.2973 7.701,-3.5994 2.8835,-0.3322 5.9257,0.3104 8.5544,1.7637 2.6027,1.4575 4.8874,3.7399 5.8214,6.597 l 0.006,0.0175 c 0.1118,0.3423 0.4799,0.5291 0.8222,0.4171 0.3257,-0.1065 0.5101,-0.4476 0.4305,-0.7752 -0.828,-3.3704 -3.202,-6.1172 -6.0193,-7.996 -2.8467,-1.8704 -6.2976,-2.9174 -9.8172,-2.7877 -3.5234,0.1174 -6.9908,1.5521 -9.7039,3.7698 -1.363,1.1037 -2.5887,2.3627 -3.6449,3.7302 -1.0444,1.402 -1.9756,2.756 -2.7889,4.385 -1.6179,3.2044 -2.2158,7.0364 -1.6349,10.6457 0.5527,3.6232 2.1127,6.9643 4.1444,9.8417 4.127,5.7491 9.9637,9.9547 16.5357,12.4688 3.3038,1.2263 6.8397,1.9958 10.5067,2.0831 3.6542,0.0884 7.474,-0.5561 10.9847,-2.1749 3.5175,-1.5967 6.6002,-4.1799 8.8962,-7.2038 2.2937,-3.0351 3.8928,-6.4343 4.9435,-9.8647 1.0479,-3.4465 1.7027,-6.8519 1.9327,-10.509 0.2157,-3.6275 -0.0934,-7.4544 -1.2378,-11.1607 -1.115,-3.7057 -3.0785,-7.2057 -5.5365,-10.1014 z" />
	<path
   style="fill:#c87137"
   id="path1084"
   d="m 403.088,562.8935 c 8.6002,0.7642 15.4425,-0.9413 20.3211,-5.0759 4.0408,-3.4255 5.7879,-7.7062 6.5328,-10.4788 0.6578,2.7619 2.2618,7.0107 6.1652,10.4276 4.035,3.532 9.5453,5.312 16.4186,5.312 1.277,0 2.6013,-0.0619 3.9712,-0.1848 7.2555,-0.652 12.7029,-3.9083 16.1923,-9.6778 8.6853,-14.361 2.7861,-40.4555 -1.2383,-50.1546 -5.7038,-13.7438 -40.887,-68.9608 -41.241,-69.517 l -0.4179,-0.6549 -0.4179,0.6549 c -0.3541,0.5562 -35.5373,55.7732 -41.241,69.517 -4.0263,9.7039 -9.9274,35.8091 -1.2363,50.1691 3.4903,5.7655 8.9377,9.017 16.1912,9.6632 z m 8.2318,-60.0303 c 2.5791,-6.215 18.4719,-31.1325 18.4719,-31.1325 0,0 15.8928,24.9175 18.4717,31.1325 2.5791,6.215 6.2814,25.3687 -6.5189,26.5186 -11.4739,1.0308 -11.8656,-8.0458 -11.8656,-8.0458 0,0 -0.6855,9.0577 -12.0401,8.0458 -12.801,-1.1409 -9.098,-20.3036 -6.519,-26.5186 z" />
	<path
   style="fill:#c87137"
   id="path1086"
   d="m 445.9504,399.1635 c 1.0236,6.1759 2.5507,12.313 4.9325,18.1895 2.226,5.9222 5.1993,11.5943 8.443,17.0942 1.6313,2.7472 3.5184,5.379 5.3144,8.0285 1.9707,2.5726 3.9778,5.1139 6.1168,7.567 0.0999,0.1141 0.2751,0.1675 0.4409,0.1211 0.2104,-0.059 0.3264,-0.2555 0.2588,-0.4391 l -0.006,-0.016 c -1.0841,-2.9471 -2.3606,-5.7798 -3.5632,-8.6288 l -3.4443,-8.5601 c -0.5183,-1.439 -1.0453,-2.8708 -1.6097,-4.2865 l -0.8289,-2.128 -0.7159,-2.1591 -1.4797,-4.2914 c -0.5248,-1.4194 -0.8909,-2.8786 -1.3441,-4.3131 -1.8507,-5.7319 -3.3141,-11.517 -4.778,-17.3153 -1.4095,-5.8113 -2.2849,-11.7173 -2.7254,-17.6609 -0.3134,-5.946 -0.1278,-11.9169 0.5768,-17.8535 0.6686,-5.9403 1.8831,-11.8488 3.6626,-17.6412 1.7432,-5.8016 4.0506,-11.4898 6.8826,-16.9908 1.4423,-2.7385 2.9922,-5.4409 4.707,-8.0668 1.7037,-2.6255 3.554,-5.2093 5.6381,-7.6017 l 0.0151,-0.0173 c 0.1227,-0.1417 0.1024,-0.3443 -0.052,-0.465 -0.1629,-0.1273 -0.4131,-0.1154 -0.5591,0.0267 -4.7187,4.5928 -8.5429,9.7781 -11.9352,15.1741 -3.3497,5.4161 -6.1989,11.0868 -8.4901,16.9424 -2.2595,5.8639 -3.9565,11.9061 -5.0938,18.038 -1.0947,6.1371 -1.6546,12.3553 -1.6902,18.5855 0.0619,3.1096 0.0325,6.2361 0.3427,9.3422 0.1539,3.1216 0.5911,6.2165 0.9842,9.3254 z" />
	<path
   style="fill:#c87137"
   id="path1088"
   d="m 391.1753,449.7087 -0.006,0.0166 c -0.05,0.1368 7e-4,0.2921 0.1392,0.384 0.1759,0.1167 0.427,0.0869 0.5609,-0.0666 2.1389,-2.4531 4.1461,-4.9944 6.1168,-7.567 1.796,-2.6495 3.6831,-5.2813 5.3144,-8.0285 3.2437,-5.4999 6.217,-11.172 8.443,-17.0942 2.3818,-5.8765 3.9089,-12.0136 4.9325,-18.1895 0.3931,-3.1089 0.8303,-6.2038 0.9842,-9.3257 0.3102,-3.1061 0.2808,-6.2325 0.3427,-9.3422 -0.0356,-6.2302 -0.5954,-12.4484 -1.6902,-18.5855 -1.1373,-6.1319 -2.8344,-12.1741 -5.0938,-18.038 -2.2912,-5.8556 -5.1405,-11.5263 -8.4901,-16.9424 -3.3923,-5.396 -7.2165,-10.5813 -11.9352,-15.1741 -0.1364,-0.1319 -0.3693,-0.1539 -0.5344,-0.0445 -0.1741,0.1154 -0.208,0.3321 -0.0757,0.4839 l 0.0142,0.0163 c 2.0841,2.3924 3.9343,4.9763 5.638,7.6017 1.7148,2.6259 3.2647,5.3283 4.707,8.0668 2.832,5.501 5.1394,11.1892 6.8827,16.9908 1.7794,5.7924 2.994,11.701 3.6625,17.6412 0.7047,5.9367 0.8903,11.9075 0.5768,17.8535 -0.4405,5.9436 -1.3159,11.8495 -2.7254,17.6609 -1.4639,5.7984 -2.9273,11.5835 -4.778,17.3153 -0.4532,1.4345 -0.8193,2.8937 -1.3441,4.3131 l -1.4797,4.2914 -0.7159,2.1591 -0.8289,2.128 c -0.5645,1.4158 -1.0915,2.8475 -1.6098,4.2865 l -3.4443,8.5601 c -1.2026,2.8492 -2.479,5.6819 -3.5632,8.629 z" />
	<path
   style="fill:#c87137"
   id="path1090"
   d="m 648.3174,589.7971 c 6.245,-1.0975 10.4178,-7.0496 9.3204,-13.2946 -1.0975,-6.2449 -7.0497,-10.4178 -13.2946,-9.3204 -6.2449,1.0975 -10.4178,7.0497 -9.3204,13.2946 1.0974,6.2451 7.0497,10.418 13.2946,9.3204 z" />
	<path
   style="fill:#c87137"
   id="path1092"
   d="m 605.4275,635.5305 c 0.705,4.0117 4.5286,6.6923 8.5402,5.9872 4.0118,-0.705 6.6923,-4.5286 5.9873,-8.5402 -0.705,-4.0117 -4.5286,-6.6923 -8.5403,-5.9872 -4.0117,0.705 -6.6922,4.5286 -5.9872,8.5402 z" />
	
		<ellipse
   style="fill:#c87137"
   id="ellipse1094"
   ry="9.9605999"
   rx="9.9604998"
   cy="609.2359"
   cx="630.02972"
   transform="matrix(0.113,-0.9936,0.9936,0.113,-46.4733,1166.4159)" />
	<path
   style="fill:#c87137"
   id="path1096"
   d="m 676.1818,476.7223 c -1.2119,-0.6566 -2.4605,-1.2184 -3.7283,-1.7022 -1.2716,-0.4596 -2.5687,-0.8384 -3.8664,-1.1095 -1.3162,-0.2891 -2.5573,-0.4846 -3.9351,-0.6177 -1.4617,-0.1417 -2.9668,-0.1202 -4.465,0.0897 -2.9943,0.4102 -5.9348,1.5821 -8.3057,3.3542 -2.4053,1.7388 -4.2795,3.9852 -5.6369,6.4153 -1.3784,2.4273 -2.2181,5.0813 -2.5805,7.8183 -0.2908,2.7408 -0.1583,5.636 1.0266,8.4147 0.5854,1.3741 1.4222,2.7138 2.5539,3.795 l 0.4203,0.4018 0.3992,0.3274 c 0.2663,0.2171 0.5281,0.4351 0.8192,0.6292 0.5587,0.4056 1.1575,0.7696 1.7786,1.0924 2.477,1.3047 5.4941,1.7757 8.1945,1.0571 2.6899,-0.6855 5.0636,-2.4099 6.3229,-4.7811 0.6165,-1.1777 1.0061,-2.4761 0.9926,-3.7671 0.002,-1.2854 -0.2958,-2.5245 -0.8329,-3.5985 -0.0984,-0.193 -0.3173,-0.31 -0.5408,-0.2675 -0.2714,0.0516 -0.4493,0.3134 -0.3978,0.5847 0.3889,2.1244 -0.1959,4.1698 -1.4521,5.5513 -1.2579,1.3851 -3.0413,2.167 -4.7835,2.234 -1.7496,0.0509 -3.3994,-0.5202 -4.7523,-1.5643 -0.3384,-0.2628 -0.6634,-0.5469 -0.9663,-0.8644 -0.1583,-0.1458 -0.2998,-0.3207 -0.4442,-0.4882 l -0.2167,-0.2491 -0.1404,-0.2287 c -0.3699,-0.5949 -0.6464,-1.2582 -0.8016,-2.0056 -0.6313,-3.0281 0.5444,-6.8742 2.5831,-9.6026 0.499,-0.7006 1.0809,-1.3189 1.686,-1.871 0.5944,-0.5671 1.2462,-1.0325 1.913,-1.4195 1.3394,-0.7753 2.7559,-1.1878 4.2299,-1.2713 0.7393,-0.0357 1.4958,0.0181 2.2698,0.1232 0.8566,0.1238 1.8356,0.321 2.7058,0.5623 1.779,0.4893 3.4545,1.1347 4.9835,1.9761 1.5113,0.8665 2.892,1.8844 4.0824,3.0956 1.1614,1.2311 2.1993,2.5959 2.9614,4.1442 0.7715,1.5381 1.3403,3.2138 1.639,4.9733 0.1509,0.8792 0.2252,1.7778 0.2476,2.6835 0.0143,0.4533 -0.002,0.9079 -0.0184,1.3643 -0.0341,0.4735 -0.0607,0.9631 -0.1216,1.4422 -0.4196,3.8593 -1.6835,7.6458 -3.7564,10.9992 -4.1107,6.7816 -11.2598,11.6858 -19.1697,14.8076 -3.9631,1.592 -8.1326,2.8245 -12.4005,3.7506 -2.1365,0.4557 -4.2931,0.8536 -6.4679,1.1846 -2.1866,0.3314 -4.3173,0.5696 -6.6759,0.8936 -4.6048,0.6803 -9.197,1.8079 -13.554,3.6563 -4.3456,1.8311 -8.46,4.4841 -11.6534,8.0525 -3.2004,3.5579 -5.335,7.9867 -6.238,12.5659 -0.8716,4.5974 -0.7602,9.2688 0.3542,13.7585 0.0617,0.2452 0.302,0.4093 0.5566,0.3693 0.2697,-0.0424 0.454,-0.2955 0.4115,-0.5652 l -0.007,-0.043 c -1.3629,-8.6641 0.9559,-18.099 7.1451,-23.9592 3.0474,-2.9471 6.8412,-5.0374 10.8856,-6.4125 4.049,-1.3898 8.3394,-2.1242 12.6688,-2.4625 2.1147,-0.1608 4.4718,-0.282 6.753,-0.4862 2.2936,-0.2065 4.5869,-0.4849 6.8788,-0.8291 4.5801,-0.7093 9.1559,-1.7352 13.6418,-3.2482 4.4783,-1.5143 8.8683,-3.5577 12.9329,-6.2823 4.071,-2.7009 7.7551,-6.2087 10.6326,-10.3749 2.8792,-4.1642 4.8865,-8.9832 5.8399,-14.0163 1.0235,-5.0652 0.6924,-10.8422 -1.5222,-15.9372 -2.1524,-5.129 -6.2087,-9.5456 -11.0788,-12.143 z" />
	<path
   style="fill:#c87137"
   id="path1098"
   d="m 558.6722,680.0213 c 2.4301,0.7817 5.8246,1.3505 9.495,0.3686 4.8582,-1.3011 8.8458,-4.8737 11.8525,-10.6191 0.8871,-1.6968 0.2312,-3.7922 -1.4646,-4.6803 -4e-4,-2e-4 -7e-4,-2e-4 -0.001,-4e-4 -0.0104,-0.2508 -0.0426,-0.5035 -0.1103,-0.756 -4.9956,-18.6485 -1.9735,-39.2357 -1.9425,-39.4407 0.0414,-0.274 0.0408,-0.5433 0.0187,-0.808 0.6331,-1.0135 0.7372,-2.3197 0.1379,-3.4524 -2.848,-5.3865 -6.6663,-8.6447 -11.3505,-9.6817 -4.005,-0.8871 -7.7643,0.1132 -10.4333,1.2673 -1.9996,-4.2623 -4.9443,-7.1036 -8.7888,-8.4705 -7.0881,-2.5191 -15.0333,1.0641 -18.8052,3.1798 -5.251,-3.7119 -10.7603,-5.2036 -16.4109,-4.4403 -7.9907,1.0806 -14.1307,6.4922 -17.3135,9.9477 -9.6507,-6.9236 -21.5942,-3.5445 -28.812,0.4653 -3.6355,-4.8708 -8.0971,-7.6782 -13.3017,-8.3583 -8.6737,-1.1338 -16.9014,4.184 -21.0128,7.4363 -4.0263,-3.8967 -8.6456,-5.9959 -13.7728,-6.2542 -8.2316,-0.4024 -15.6283,4.1763 -19.5898,7.2419 -3.3839,-4.0389 -7.4596,-6.4177 -12.1563,-7.0862 -7.3696,-1.0467 -14.3349,2.5327 -18.3031,5.1639 -3.2069,-4.9066 -7.4044,-8.0912 -12.5181,-9.4863 -9.256,-2.5269 -18.7781,1.723 -22.9437,3.9934 -4.4316,-3.0347 -8.8817,-4.0427 -13.261,-3.0096 -5.6399,1.336 -9.6536,5.8721 -11.9677,9.3015 -2.8122,-1.959 -5.5325,-2.3972 -7.5786,-2.372 -8.4444,0.1722 -15.0469,8.5933 -15.7724,9.554 -1.0323,1.366 -0.8893,3.2426 0.2458,4.4503 0.2366,1.6432 2.4342,18.149 -1.0313,40.08 -0.0844,0.5341 -0.0304,1.0542 0.1166,1.5392 -0.0285,0.2188 -0.0392,0.4428 -0.0247,0.6713 0.3367,5.2675 3.9334,10.6124 8.9513,13.2979 3.0482,1.6329 6.2784,2.1486 9.4166,1.5633 0.6723,3.2775 2.2598,7.5109 5.9862,10.4769 4.0959,3.261 9.6537,4.1985 16.5551,2.8025 4.006,5.9272 16.3596,19.9245 39.194,10.7285 6.7031,4.1704 20.0009,7.8833 33.2978,-1.3873 3.6045,2.7861 11.0651,7.5264 19.6159,7.1326 5.311,-0.2477 10.1296,-2.3914 14.359,-6.3839 3.9479,2.7145 11.8158,7.1026 20.5117,6.2881 5.3497,-0.504 10.1161,-2.8577 14.2081,-7.0078 3.8986,2.9738 11.4191,7.7836 19.2744,7.7836 0.9181,0 1.84,-0.0658 2.761,-0.207 4.7161,-0.7265 8.6853,-3.2552 11.8341,-7.5302 5.6312,2.6807 18.1783,7.5583 27.8078,3.2911 4.8892,-2.166 8.2935,-6.2455 10.147,-12.1466 7.01,-0.4073 17.6077,-3.7719 22.8801,-14.4462 z m 14.3687,-12.0011 c -1.8868,3.0625 -4.1039,4.9642 -6.6073,5.655 -3.9983,1.1019 -7.743,-1.1541 -7.7585,-1.1638 l -0.0905,-0.0574 c 0.003,-0.2598 -0.0157,-0.5225 -0.074,-0.7871 -1.2263,-5.5695 -1.9351,-12.482 -2.3288,-19.4509 4.6914,-1.1343 8.9792,-2.3464 12.7343,-3.6401 0.3988,5.5863 1.2405,11.6199 2.8294,17.5517 0.212,0.7915 0.683,1.4424 1.2954,1.8926 z m -16.9677,-48.6658 c 1.5118,-0.8761 4.6168,-2.3244 7.7348,-1.6333 2.3466,0.5202 4.4114,2.2624 6.1534,5.1622 -0.1447,0.3015 -0.2621,0.6202 -0.3151,0.9682 -0.0779,0.512 -1.1343,7.6788 -1.0267,17.4686 -3.6378,1.364 -7.9433,2.6396 -12.7379,3.8328 -0.3594,-12.2646 0.08,-23.3098 0.1915,-25.7985 z M 300.3697,673.392 c -2.5519,1.0118 -4.78,0.3586 -6.2734,-0.4414 -2.8896,-1.5469 -5.1204,-4.7538 -5.3033,-7.626 -0.0174,-0.2727 -0.0733,-0.5323 -0.1491,-0.7831 0.985,-6.2587 1.5318,-12.0636 1.802,-17.249 2.4855,0.815 6.4887,2.0767 11.7765,3.5787 -0.3911,6.7472 -1.008,13.9754 -1.9686,21.0771 -0.0677,0.5009 -0.0188,0.9886 0.1159,1.4437 z m 2.1943,-29.6322 c -6.143,-1.7761 -10.2629,-3.1448 -11.9016,-3.7057 0.0773,-10.6529 -0.9519,-17.3616 -1.0228,-17.8095 -0.0347,-0.2177 -0.0935,-0.425 -0.1652,-0.6251 2.0823,-2.1899 5.6417,-5.1539 9.0188,-5.215 0.0329,-10e-4 0.0668,-10e-4 0.1006,-10e-4 1.4604,0 2.8333,0.5776 4.1599,1.755 -0.0289,0.2034 -0.0469,0.4103 -0.0388,0.6229 0.006,0.1697 0.3925,10.8011 -0.1509,24.9784 z m 19.282,43.2132 c -0.002,0.011 -9e-4,0.0218 -0.003,0.0329 -4.9821,1.089 -8.7769,0.6619 -11.2703,-1.306 -4.0331,-3.1808 -3.8841,-9.6642 -3.8831,-9.7145 l 0.0785,-1.9915 c 0.1756,-0.3416 0.3033,-0.7145 0.3578,-1.1168 0.9154,-6.768 1.5248,-13.6449 1.9276,-20.1328 5.1054,1.3522 11.0014,2.8084 17.5629,4.2581 -1.077,8.4862 -2.6077,18.4092 -4.7706,29.9706 z m -12.4232,-41.3004 c 0.5563,-13.0699 0.3281,-23.4914 0.2456,-26.3637 l 0.2478,-0.5498 c 1.0119,-2.2482 4.7083,-8.3322 9.5859,-9.4747 2.698,-0.6321 5.6696,0.3282 8.8408,2.8239 -0.1643,0.5449 -0.2119,1.1323 -0.0829,1.7277 0.0288,0.1309 2.0132,9.9411 -0.8296,36.2531 -6.7969,-1.5134 -12.8511,-3.0299 -18.0076,-4.4165 z m 18.7257,43.8322 c 0.244,-0.3722 0.427,-0.792 0.5138,-1.2567 2.1365,-11.4203 3.6654,-21.2851 4.7567,-29.798 7.5216,1.5405 15.7582,3.0286 24.5601,4.3242 -0.1789,10.2856 0.0276,21.978 0.9365,34.7066 0.0208,0.2906 0.0879,0.5647 0.1747,0.8296 -19.1915,7.5288 -28.578,-4.9334 -30.9418,-8.8057 z m 33.5523,-71.6425 c -0.164,0.8926 -2.7278,15.2175 -3.538,37.9358 -8.5773,-1.2789 -16.6016,-2.7401 -23.9197,-4.2491 3.0747,-27.9682 0.9207,-38.6003 0.7943,-39.1835 -0.0667,-0.3073 -0.1842,-0.5875 -0.3222,-0.8537 3.4088,-1.8176 10.8699,-5.0977 17.5747,-3.2568 4.0941,1.1254 7.2762,3.9918 9.7254,8.7031 -0.1391,0.2822 -0.2553,0.5792 -0.3145,0.9042 z m 3.8231,80.7837 c 0.2275,-0.506 0.3509,-1.0665 0.3086,-1.6585 -0.8645,-12.1066 -1.0676,-23.314 -0.9072,-33.2499 8.039,1.0504 16.4822,1.9223 25.2257,2.517 0.0379,9.4433 0.4321,19.5291 1.4403,29.4628 0.0492,0.4828 0.2017,0.9279 0.4232,1.327 -12.1551,9.0103 -23.1277,3.6678 -26.4906,1.6016 z m 27.0765,-79.1256 c -0.032,0.2579 -2.1087,17.475 -2.4148,39.7885 -8.7015,-0.6005 -17.101,-1.4775 -25.0851,-2.5339 0.7903,-22.9087 3.3815,-37.4491 3.4214,-37.6647 0.057,-0.3126 0.0555,-0.6196 0.0292,-0.9216 2.1624,-1.6722 8.9077,-6.3674 15.3824,-5.4429 3.4302,0.4876 6.3318,2.4772 8.8475,6.0336 -0.0843,0.2358 -0.1489,0.4818 -0.1806,0.741 z m 32.6844,78.3039 c 0.004,0.0955 0.0271,0.1847 0.0383,0.278 -3.2383,3.3895 -6.7552,5.1559 -10.7223,5.3493 -7.6425,0.3614 -14.6257,-5.2288 -16.3766,-6.7496 0.2178,-0.5172 0.3273,-1.0876 0.2666,-1.6851 -0.9693,-9.5501 -1.3553,-19.2455 -1.4033,-28.3553 5.8946,0.2938 11.9045,0.4575 18.0028,0.4575 3.3888,0 6.8124,-0.0703 10.2495,-0.1747 -0.2041,12.891 -0.289,24.8849 -0.055,30.8799 z m 1.1531,-79.4126 c -0.0411,1.4557 -0.6097,21.5233 -0.9794,41.6084 -9.6582,0.3033 -19.1479,0.167 -28.3447,-0.2979 0.2838,-22.0294 2.3376,-39.1004 2.3686,-39.3544 0.0166,-0.1342 0.008,-0.2646 0.009,-0.3968 2.0204,-1.8026 9.2604,-7.7188 16.8442,-7.3201 3.7858,0.1986 7.1223,1.9299 10.1686,5.2502 -0.0298,0.1677 -0.061,0.335 -0.0661,0.5106 z m 6.9277,0.1318 c 3.1524,-2.8094 10.5398,-8.0021 17.1779,-7.125 3.6931,0.4828 6.806,2.7549 9.4987,6.8865 -0.7965,0.7463 -1.2328,1.8524 -1.0679,3.0148 0.0328,0.235 2.1219,15.3282 2.562,36.4686 -13.6663,1.0578 -24.4031,1.6794 -29.1321,1.9342 0.3791,-20.4152 0.9556,-40.7565 0.9661,-41.1135 6e-4,-0.0224 -0.005,-0.0433 -0.005,-0.0656 z m 26.7244,78.6867 c -3.2032,3.7175 -6.7915,5.7468 -10.9473,6.147 -7.324,0.7003 -14.3394,-3.8707 -16.9314,-5.7924 -4e-4,-0.0107 0.002,-0.0207 0.002,-0.0314 -0.2289,-5.8703 -0.138,-17.9215 0.0703,-30.8773 4.5428,-0.2347 15.3893,-0.8391 29.3323,-1.9039 0.0197,10.0523 -0.3776,21.1344 -1.5259,32.458 z m 30.1834,-78.5618 c -0.0364,0.3272 -0.0427,0.6614 0.0193,1.002 0.0466,0.2567 2.8305,15.792 4.0937,35.1343 -9.0352,0.9559 -17.8547,1.7625 -25.9291,2.4302 -0.462,-21.0726 -2.5167,-36.1607 -2.6138,-36.8562 1.2687,-0.865 14.6735,-9.6319 24.4299,-1.7103 z m 3.6068,77.9545 -0.2683,0.4749 c -2.314,4.0979 -5.1436,6.3548 -8.6485,6.8995 -6.4721,1.0076 -14.2592,-4.1047 -17.876,-7.085 1.1144,-11.4194 1.4934,-22.5752 1.458,-32.6879 8.1433,-0.6663 17.0575,-1.4758 26.2179,-2.4432 0.4602,10.9289 0.3212,22.5855 -1.1039,33.1216 -0.0819,0.6054 0.0126,1.1889 0.2208,1.7201 z m 3.3107,-77.7687 c 1.4601,-1.8542 7.1678,-8.5067 14.6429,-9.5002 3.9881,-0.524 7.997,0.6984 11.9274,3.6092 -10e-4,0.0264 -0.009,0.0509 -0.009,0.0775 -0.0201,1.1533 -0.2861,18.2843 0.8794,37.9968 -7.6074,1.1204 -15.4871,2.1205 -23.3109,3.0076 -1.1792,-17.9059 -3.6401,-32.418 -4.1297,-35.1909 z m 32.5426,71.4167 c -1.1193,5.1669 -3.3724,8.4366 -6.8869,9.999 -6.7807,3.0131 -17.3062,-0.8598 -22.6049,-3.4774 0.136,-0.3001 0.2434,-0.6177 0.29,-0.961 1.515,-11.2029 1.6575,-23.4379 1.1691,-34.8083 7.8282,-0.8868 15.7349,-1.8895 23.399,-3.0176 0.7901,10.4535 2.0182,21.1823 3.9207,30.3121 0.1274,0.6099 0.4083,1.1483 0.793,1.5843 z m 0.9509,-77.1111 c 10e-4,-0.0599 -0.0126,-0.1159 -0.0146,-0.1751 2.7841,-1.5667 8.61,-4.2993 13.0928,-2.7029 2.5393,0.9028 4.4389,3.2906 5.6722,7.0668 -0.1414,0.3502 -0.241,0.7229 -0.2616,1.1212 -0.045,0.8719 -0.6903,13.8472 -0.1923,28.2749 -5.4283,1.1635 -11.3023,2.2393 -17.4421,3.2297 -1.1221,-19.5562 -0.8591,-36.5371 -0.8544,-36.8146 z m 5.1863,74.3237 c -0.007,-0.1923 -0.0206,-0.3855 -0.061,-0.5801 -1.8556,-8.9037 -3.0493,-19.5566 -3.8152,-29.9607 6.0531,-0.9741 11.8846,-2.0309 17.3228,-3.1772 0.4297,6.8928 1.1744,13.7292 2.4216,19.3931 0.1981,0.9008 0.7369,1.6323 1.4446,2.1127 -3.8167,9.8547 -12.8777,11.8453 -17.3128,12.2122 z" />
	<path
   style="fill:#c87137"
   id="path1100"
   d="m 709.7372,448.8871 c -1.8768,-1.4825 -3.9176,-3.0966 -6.1262,-4.912 3.5489,-11.7839 14.9934,-53.9948 15.4209,-109.4921 0.2902,-37.8141 -4.6658,-73.8708 -14.7296,-107.1695 C 691.6971,185.6057 671.0084,148.154 642.8088,115.9982 589.9619,55.7338 522.0808,21.9562 446.5049,18.3169 369.9268,14.6311 291.3826,43.2733 236.4306,94.9428 c -54.2312,50.9919 -76.0107,120.8431 -84.7317,170.4618 -10.6791,60.7602 -7.3309,126.0729 8.9571,174.7115 0.1575,0.47 0.3964,0.8846 0.6682,1.2698 -2.5721,2.1365 -4.923,3.9956 -7.0617,5.6853 -17.8683,14.1167 -19.523,18.2359 -5.6636,49.979 8.9269,20.4449 17.2899,32.3623 25.4319,39.5926 -1.4465,2.8965 -2.2471,8.4132 -1.2224,20.4866 0.8886,10.473 7.2323,23.7989 13.367,36.6855 6.1057,12.8267 12.4194,26.0897 12.2603,34.3281 -0.0392,2.0161 -0.2675,4.8892 -0.5321,8.2151 -2.0301,25.5219 -6.7843,85.2894 47.4188,107.0887 0.6061,0.2438 1.2315,0.3589 1.8468,0.3589 0.3221,0 0.6385,-0.0427 0.9507,-0.1041 1.7503,4.6243 3.7405,9.1328 5.8503,13.4547 13.8986,28.4713 37.6002,51.1496 65.7144,65.4683 20.6986,10.5419 43.3167,16.8665 66.255,20.1419 29.3379,4.1891 59.4771,4.4542 88.7906,-0.0658 42.204,-6.5076 83.2853,-25.1443 111.4199,-57.9999 8.9522,-10.4544 16.5092,-22.0486 22.0887,-34.6301 0.3004,0.0567 0.6049,0.0958 0.9143,0.0956 0.6153,0 1.2402,-0.1151 1.8467,-0.3589 54.2022,-21.8002 49.4484,-81.5669 47.4188,-107.0878 -0.2641,-3.3268 -0.4933,-6.2 -0.532,-8.217 -0.1596,-8.2383 6.1545,-21.5013 12.2607,-34.328 6.1343,-12.8867 12.4785,-26.2125 13.3675,-36.6855 0.9343,-11.0173 0.3492,-16.5743 -0.8593,-19.6636 10.464,-6.1819 21.1271,-18.3501 32.7447,-44.9594 13.8601,-31.7431 12.2058,-35.8623 -5.663,-49.979 z M 335.7025,819.1903 c -8.1369,-3.4016 -15.9705,-7.4637 -23.3719,-12.1569 7.6472,-2.5746 22.6148,-9.5399 30.7153,-26.2405 4.5734,4.9702 9.2712,9.522 14.0148,13.6989 0.1919,11.6992 -12.297,21.5613 -18.6267,25.801 -0.912,-0.3638 -1.8254,-0.7237 -2.7315,-1.1025 z m 72.3267,-19.1771 c 2.5469,4.0997 5.34,8.2283 8.3917,12.2782 -0.0169,2.1481 -0.6477,3.794 -1.9389,5.0082 -2.701,2.5396 -7.8383,2.764 -9.9357,2.6248 -4.4182,-2.1188 -9.0707,-4.5503 -13.866,-7.3355 5.5655,-1.2307 12.4556,-4.4725 17.3489,-12.5757 z m -24.2795,8.3551 c -5.7003,-3.6339 -11.5293,-7.77 -17.3416,-12.4645 9.1519,-0.2995 24.5041,-2.8142 30.9088,-15.6108 2.2092,4.6618 4.7863,9.6612 7.7495,14.78 -6.0695,12.5865 -17.1121,13.4593 -21.3167,13.2953 z m 30.2179,-8.3998 c 6.5426,1.3049 16.209,1.5364 23.8555,-5.3409 0.1233,4.6732 0.2254,9.3191 0.2936,13.7538 -6.6803,5.323 -14.5211,2.7267 -17.1514,1.6037 -2.5012,-3.2952 -4.8328,-6.655 -6.9977,-10.0166 z m 22.4085,-10.935 c -8.5484,10.056 -21.6863,6.4581 -26.1719,4.822 -2.6316,-4.4712 -4.9694,-8.8697 -7.0239,-13.0408 7.8486,2.5955 20.5888,3.8264 33.9748,-7.144 0.1698,4.644 0.3376,9.5789 0.4878,14.5817 -0.4871,0.1268 -0.9335,0.3891 -1.2668,0.7811 z m 0.2114,-21.4535 c -16.2679,15.4102 -31.3588,9.4444 -36.5377,6.5984 -2.6738,-5.9293 -4.693,-11.1127 -6.0986,-14.9943 8.9412,3.0984 25.5712,5.6642 42.2696,-8.4312 0.1761,3.918 0.4283,9.7422 0.6945,16.5718 -0.1138,0.0764 -0.2253,0.158 -0.3278,0.2553 z m -42.1271,6.4296 c -0.0502,0.1117 -0.1078,0.2197 -0.1415,0.3394 -5.0837,18.1302 -29.7608,16.8422 -33.9156,16.4916 -4.4283,-3.8973 -8.8153,-8.1349 -13.0962,-12.7413 9.4665,-0.7123 30.3483,-4.0369 41.2135,-19.311 1.2714,3.7025 3.2296,8.9959 5.9398,15.2213 z m -50.4244,48.425 c 6.6015,-4.8617 15.8501,-13.385 17.6653,-23.9856 5.8218,4.8041 11.6742,9.0562 17.4182,12.812 -1.456,12.9896 -12.8611,16.2531 -16.2213,16.9358 -6.3777,-1.6226 -12.6797,-3.5254 -18.8622,-5.7622 z m 48.5346,9.8015 c -0.9829,-0.1038 -1.891,0.3873 -2.3739,1.1829 -6.2602,-0.8352 -12.4962,-1.8975 -18.6776,-3.2113 4.9445,-2.6377 10.4326,-7.4368 12.1588,-16.0514 6.035,3.7175 11.9008,6.889 17.4337,9.5904 -2.6206,8.8352 -8.2231,8.5154 -8.541,8.4894 z m 12.2152,2.7425 c -1.6035,-0.1289 -3.2072,-0.2739 -4.8104,-0.4296 2.1853,-1.7412 4.2544,-4.4852 5.6365,-8.6707 11.5457,5.293 21.2817,8.4529 27.5204,10.1935 -9.4714,0.0483 -18.9422,-0.3369 -28.3465,-1.0932 z m 8.2187,-11.2365 c 1.7253,-0.5974 3.4309,-1.4868 4.8524,-2.8174 1.1057,-1.0349 1.9471,-2.2385 2.5339,-3.5945 3.9765,4.8216 8.3408,9.4554 13.1094,13.7071 -5.0126,-1.4328 -12.1166,-3.7501 -20.4957,-7.2952 z m 25.0965,4.7365 c -4.3093,-3.7232 -8.2947,-7.8036 -11.9667,-12.0839 3.7431,0.3971 8.0125,-0.0257 12.0523,-2.167 0.0445,5.354 0.0246,10.2309 -0.0856,14.2509 z m 3.0466,-78.4754 c 8.4578,5.0718 28.1141,14.9844 43.3914,8.4211 -1.4825,3.6265 -3.5104,8.4315 -5.9801,13.9045 -14.9131,11.9634 -31.0803,1.3258 -36.6048,-3.0748 -0.3091,-8.0675 -0.6095,-14.9267 -0.8065,-19.2508 z m 32.1605,44.5645 c 3.1461,-5.9736 5.9962,-11.8594 8.4691,-17.2382 4.2455,5.8271 14.4389,17.5132 28.1141,17.9308 -4.0641,3.4864 -8.6428,7.1378 -13.7175,10.7983 -0.1524,0.0289 -0.3045,0.064 -0.4513,0.1221 -10.3957,4.1157 -19.4827,-7.3543 -22.4144,-11.613 z m 14.5626,17.178 c -3.6859,2.392 -7.5884,4.7504 -11.6967,7.0329 -0.3335,-0.0758 -0.6813,-0.0945 -1.0259,-0.027 -3.2999,0.6489 -6.0384,0.2204 -8.1385,-1.2739 -0.036,-0.0253 -0.0707,-0.0508 -0.1058,-0.0765 -1.938,-1.4249 -3.0738,-3.5474 -3.7222,-5.2611 2.6253,-4.1227 5.1382,-8.4124 7.51,-12.7173 3.2917,4.316 9.4126,10.8404 17.1791,12.3229 z m -3.7082,-39.705 c 2.6906,-6.078 4.7789,-11.1864 6.1205,-14.5734 5.6622,7.4022 19.6205,22.407 38.0305,19.7905 -2.8149,3.1721 -6.8247,7.4208 -11.9722,12.229 -16.9984,4.7994 -30.1501,-14.2988 -32.1788,-17.4461 z m -41.9784,3.4145 c 7.03,4.6406 19.7339,10.655 32.6194,4.96 -1.8098,3.7859 -3.776,7.7375 -5.8692,11.7236 -13.5714,6.9164 -22.2842,2.5735 -26.2331,-0.5789 -0.1531,-5.4897 -0.3325,-10.9526 -0.5171,-16.1047 z m 22.9825,23.6296 c -1.5424,2.7499 -3.1364,5.4797 -4.7766,8.1443 -0.6726,-0.1238 -1.3744,0.023 -1.9338,0.4434 -6.7091,5.0435 -13.4507,1.2852 -15.3971,-0.0178 -0.051,-3.2999 -0.1202,-6.7018 -0.2029,-10.1376 4.8555,2.7425 12.3484,4.8631 22.3104,1.5677 z m -22.1682,30.8648 c 0.1562,-4.5634 0.1863,-10.2836 0.1308,-16.593 3.3274,1.5169 7.8334,2.4984 12.527,1.1724 -4.0596,5.9275 -8.3187,11.2602 -12.6578,15.4206 z m 17.0214,-13.0139 c 0.9668,1.6236 2.2771,3.2534 4.0796,4.55 1.0823,0.776 2.256,1.3619 3.5066,1.7794 -5.9642,2.9333 -12.3117,5.6651 -19.028,8.0864 3.9473,-4.1303 7.7851,-9.0635 11.4418,-14.4158 z m -8.052,18.435 c 7.5926,-2.8231 14.7255,-6.0246 21.363,-9.4616 0.3401,2.0265 1.0944,4.2966 2.6878,6.0781 0.1359,0.1521 0.2837,0.2883 0.4283,0.4289 -8.0989,1.3954 -16.2714,2.3686 -24.4791,2.9546 z m 37.2559,-5.5232 c -1.4458,0.3372 -2.8964,0.651 -4.3484,0.9585 -0.4551,-0.5168 -1.1147,-0.8488 -1.8574,-0.8466 -1.4513,0.004 -2.5307,-0.4113 -3.3001,-1.2658 -1.2051,-1.34 -1.5922,-3.5868 -1.6708,-5.3073 6.1587,-3.4019 11.8646,-6.9753 17.1052,-10.5803 1.4922,4.5172 4.5761,9.8863 9.8571,12.6581 -5.2045,1.6791 -10.4748,3.1445 -15.7856,4.3834 z m 23.8237,-7.1686 c -0.3193,-0.181 -0.6787,-0.3015 -1.0699,-0.3246 -8.5055,-0.496 -11.5917,-8.9177 -12.5352,-12.5782 6.6504,-4.8225 12.4632,-9.6249 17.4056,-14.0692 1.2722,5.2379 4.6599,14.2122 13.4229,19.5314 -5.6008,2.7745 -11.3562,5.2546 -17.2234,7.4406 z m 22.6247,-10.2353 c -11.774,-5.061 -14.1555,-17.7634 -14.5512,-20.6877 6.0896,-5.7916 10.4999,-10.6951 13.1467,-13.8167 2.3914,6.1044 8.1907,16.7241 20.7825,22.2205 -6.1464,4.5477 -12.6323,8.6411 -19.378,12.2839 z M 706.3223,494.9017 c -17.8311,40.8396 -31.1037,43.2726 -47.9083,46.3537 -6.7089,1.2296 -14.3126,2.6236 -22.4706,6.618 -29.7068,14.5458 -27.891,42.1223 -27.7991,43.289 0.2041,2.5927 2.3691,4.5516 4.9289,4.5516 0.1228,0 0.2466,-0.005 0.3705,-0.0145 2.7174,-0.1993 4.7634,-2.5704 4.5777,-5.2888 -0.0609,-0.8987 -1.2266,-22.1311 22.2781,-33.6412 6.9314,-3.3926 13.5242,-4.6019 19.9003,-5.7705 4.4462,-0.8153 8.8322,-1.621 13.2137,-3.0436 0.0748,0.0636 0.1421,0.1366 0.2205,0.1956 0.3115,1.3998 0.7933,5.2626 0.01,14.5003 -0.7362,8.6785 -6.6866,21.1772 -12.4407,33.2648 -6.9043,14.5032 -13.4255,28.2015 -13.2204,38.778 0.0445,2.314 0.2844,5.3246 0.561,8.8101 0.5856,7.359 1.3519,17.0302 0.9835,27.5144 -2.4278,-5.5319 -5.997,-10.6205 -10.6152,-14.7125 -5.7025,-4.9796 -12.9351,-8.3055 -20.6858,-9.1242 -3.8715,-0.3334 -7.8892,-0.0888 -11.7203,1.1246 -1.9321,0.5422 -3.7588,1.4172 -5.5613,2.3981 -1.7312,1.0692 -3.4031,2.2589 -4.8477,3.6838 -2.95,2.7847 -5.3141,6.1752 -6.8547,9.9453 -1.5477,3.7529 -2.4821,7.8658 -2.2729,12.0886 0.0718,1.0525 0.1309,2.1086 0.3507,3.1545 0.0999,0.5228 0.1666,1.0528 0.3013,1.5699 l 0.444,1.5453 0.235,0.7697 0.3081,0.7463 0.6293,1.4895 c 0.48,0.9501 0.9803,1.8945 1.5511,2.7831 2.3113,3.5348 5.3722,6.4169 8.8662,8.6147 3.4969,2.1764 7.5508,3.6148 11.8506,3.8341 1.0607,0.1061 2.1619,-0.0342 3.2355,-0.1044 0.5371,-0.0213 1.0778,-0.1896 1.6124,-0.2836 0.5326,-0.1302 1.0732,-0.1893 1.5894,-0.3884 1.0286,-0.3947 2.0884,-0.6841 3.0176,-1.2807 l 1.408,-0.8228 c 0.4521,-0.3392 0.9133,-0.6496 1.3297,-1.0388 1.7094,-1.4711 3.0388,-3.4338 3.7103,-5.5096 0.6783,-2.0795 0.8297,-4.2045 0.5929,-6.2081 -0.2607,-2.0043 -0.8327,-3.9162 -1.7783,-5.6437 -0.4781,-0.8593 -1.0272,-1.6823 -1.7221,-2.4061 -0.7041,-0.6899 -1.5559,-1.3887 -2.6621,-1.5032 -0.1606,-0.0163 -0.3224,0.067 -0.3974,0.2205 -0.096,0.1968 -0.0145,0.4343 0.1824,0.5304 l 0.0496,0.0242 c 0.6661,0.3251 1.1556,0.9878 1.5285,1.701 0.3814,0.7139 0.6513,1.5052 0.8458,2.3063 0.3872,1.6049 0.5145,3.2712 0.3344,4.8522 -0.1404,1.5795 -0.5776,3.0748 -1.2881,4.3069 -0.7148,1.2291 -1.6321,2.2245 -2.7921,2.9094 -0.2723,0.1888 -0.5961,0.321 -0.8882,0.4818 l -1.0052,0.3676 c -0.6336,0.3124 -1.3568,0.3818 -2.0228,0.567 -0.3333,0.0967 -0.705,0.0657 -1.0501,0.1108 -0.3546,0.01 -0.6893,0.1007 -1.0526,0.0557 -0.7187,-0.0648 -1.4172,-0.0261 -2.1364,-0.209 -2.8431,-0.48 -5.6904,-1.6947 -8.1522,-3.5009 -0.6085,-0.4608 -1.2509,-0.8708 -1.8037,-1.402 l -0.8619,-0.7495 -0.7913,-0.8196 c -1.0787,-1.0698 -1.9965,-2.2654 -2.8224,-3.4937 -0.3763,-0.6305 -0.7527,-1.2587 -1.0999,-1.8956 l -0.4412,-0.9795 -0.2273,-0.4881 -0.1647,-0.515 c -0.1081,-0.344 -0.2297,-0.684 -0.3526,-1.0251 -0.1152,-0.3436 -0.1699,-0.707 -0.262,-1.0597 -0.2042,-0.7026 -0.2727,-1.439 -0.3721,-2.1724 -0.7197,-5.898 1.4775,-12.4527 5.7725,-16.9801 4.2055,-4.6281 10.7291,-6.7401 17.2789,-6.4456 6.5781,0.2843 13.1818,2.7755 18.546,6.9261 5.7744,4.4166 10.1984,10.6212 12.8048,17.5806 -1.7685,22.6855 -9.7087,47.7659 -36.2709,61.1279 1.8277,-5.6339 3.1008,-11.5013 3.0062,-17.2707 -0.0256,-1.5628 -0.1774,-3.1541 -0.5391,-4.6754 -1.4736,-6.1996 -11.028,-3.5749 -9.5522,2.6334 0.0456,0.1915 0.0804,0.3267 0.1071,0.4216 6e-4,0.009 6e-4,0.0143 10e-4,0.0242 0.0418,0.6785 0.0786,1.3506 0.0767,2.0309 -0.002,0.6794 -0.0394,1.3586 -0.0887,2.0361 -0.0432,0.5925 -0.1841,1.7057 -0.2026,1.8992 -0.6699,4.351 -1.8369,8.6187 -3.261,12.7794 -3.9436,11.5217 -10.2384,22.6082 -17.6115,32.5935 -7.2798,9.8591 -15.7999,18.5419 -25.2225,26.0861 -18.0079,-6.1079 -21.826,-23.4971 -21.9899,-24.29 -0.0121,-0.0594 -0.0357,-0.1144 -0.0519,-0.1723 -0.0202,-0.0728 -0.0382,-0.1454 -0.0649,-0.2164 -0.0295,-0.0775 -0.0677,-0.15 -0.1046,-0.2238 -0.0329,-0.0659 -0.0624,-0.1326 -0.1013,-0.1958 -0.0473,-0.0765 -0.1039,-0.1457 -0.1591,-0.2166 -0.0411,-0.0526 -0.0769,-0.1078 -0.1226,-0.1575 -0.0947,-0.1031 -0.1998,-0.1965 -0.3115,-0.2828 -0.0143,-0.0109 -0.0248,-0.025 -0.0394,-0.0356 -0.002,-10e-4 -0.004,-0.003 -0.005,-0.004 -0.0936,-0.0687 -0.1923,-0.1312 -0.296,-0.187 -0.0204,-0.011 -0.0432,-0.0153 -0.0638,-0.0257 -0.1025,-0.0514 -0.2075,-0.09 -0.3141,-0.1261 -0.0562,-0.0192 -0.1107,-0.0432 -0.1678,-0.0582 -0.1314,-0.0343 -0.2646,-0.053 -0.3984,-0.0652 -0.036,-0.003 -0.0714,-0.0132 -0.1076,-0.0149 -0.1704,-0.008 -0.3406,0.002 -0.5085,0.0284 -0.0422,0.007 -0.0827,0.0224 -0.1246,0.0312 -0.1266,0.027 -0.2514,0.0591 -0.3727,0.1056 -0.0151,0.006 -0.0311,0.007 -0.0461,0.0131 -24.3956,9.9186 -41.797,-18.3511 -42.5244,-19.5583 -0.0113,-0.0188 -0.0277,-0.0332 -0.0394,-0.0518 -0.0778,-0.1222 -0.1648,-0.2382 -0.2635,-0.3459 -0.0135,-0.0148 -0.0244,-0.0317 -0.0385,-0.046 -0.0959,-0.0996 -0.1998,-0.1925 -0.313,-0.2758 -0.0128,-0.009 -0.0295,-0.0139 -0.0424,-0.0229 -0.1709,-0.1207 -0.3537,-0.2228 -0.5506,-0.2971 -0.004,-0.002 -0.007,-0.005 -0.0118,-0.006 -0.1635,-0.0609 -0.3293,-0.1023 -0.4952,-0.1274 -0.001,-10e-5 -0.002,-7e-4 -0.004,-9e-4 -0.0134,-0.002 -0.0269,4e-4 -0.0404,-0.002 -0.1596,-0.0214 -0.319,-0.0274 -0.4764,-0.0176 -0.0537,0.003 -0.1051,0.0157 -0.1583,0.0225 -0.1169,0.0149 -0.2325,0.033 -0.3455,0.0641 -0.062,0.0172 -0.1207,0.041 -0.1812,0.0628 -0.1011,0.0366 -0.1994,0.0765 -0.2947,0.1256 -0.0594,0.0305 -0.1157,0.0645 -0.1727,0.0999 -0.0923,0.0573 -0.1793,0.1204 -0.2636,0.1896 -0.0291,0.024 -0.0633,0.0403 -0.0914,0.0657 -16.4853,14.8784 -47.7916,-6.8873 -48.1057,-7.1086 -0.0351,-0.0247 -0.0735,-0.0405 -0.1094,-0.0633 -0.0801,-0.0507 -0.1604,-0.101 -0.2462,-0.1424 -0.051,-0.0246 -0.1038,-0.0421 -0.1559,-0.0629 -0.0799,-0.0321 -0.1596,-0.0639 -0.2434,-0.0876 -0.059,-0.0167 -0.1187,-0.0264 -0.1787,-0.0386 -0.0787,-0.0161 -0.157,-0.0327 -0.2382,-0.0411 -0.0681,-0.007 -0.1359,-0.007 -0.2041,-0.008 -0.0578,-10e-4 -0.1139,-0.009 -0.1725,-0.007 -0.0164,9e-4 -0.0313,0.006 -0.0475,0.007 -0.1166,0.008 -0.2311,0.0278 -0.3455,0.0519 -0.0387,0.008 -0.0792,0.0107 -0.117,0.0206 -0.1458,0.0382 -0.2883,0.0904 -0.4259,0.1553 -0.0475,0.0225 -0.0895,0.0526 -0.1352,0.0778 -0.0884,0.0487 -0.1765,0.0977 -0.2596,0.1577 -0.0526,0.0381 -0.0988,0.0831 -0.1479,0.1251 -0.0541,0.046 -0.1118,0.0859 -0.1624,0.1372 -19.2855,19.5114 -38.6847,12.4802 -44.8277,9.4577 -0.2344,-0.7441 -0.3592,-1.17 -0.3719,-1.2145 -0.1569,-0.5477 -0.4864,-0.9994 -0.9123,-1.3126 -0.5966,-0.4387 -1.383,-0.6062 -2.1504,-0.3864 -1.0862,0.3109 -1.7824,1.3018 -1.7839,2.3779 -0.093,0.1153 -0.1807,0.2361 -0.2526,0.3682 -10.4532,19.2275 -39.2562,20.3884 -43.3567,20.4543 -0.1035,-0.1197 -0.2082,-0.236 -0.3115,-0.3561 -0.8921,-1.033 -2.4558,-1.1542 -3.4929,-0.2621 -1.0367,0.8923 -1.1538,2.4561 -0.2619,3.4925 0.1583,0.184 0.3185,0.3622 0.4772,0.5451 -8.8904,20.603 -29.8911,26.0682 -32.5201,26.6774 -16.5688,-11.5469 -30.6686,-26.4124 -40.7077,-44.2442 -5.0331,-8.9401 -8.6198,-17.3975 -11.4538,-27.2762 -0.9052,-3.1553 -1.6902,-6.3474 -2.3149,-9.5704 -0.2145,-1.1066 -0.3916,-2.218 -0.582,-3.3286 -0.03,-0.1748 -0.0525,-0.3027 -0.0719,-0.4117 -0.007,-0.082 -0.0219,-0.2269 -0.053,-0.4855 -0.0268,-0.2235 -0.0509,-0.4476 -0.0699,-0.6719 -0.5329,-6.3058 -10.4438,-6.3625 -9.9061,0 0.418,4.9456 1.349,9.8918 2.6415,14.771 -23.901,-11.5496 -33.1212,-32.3991 -36.2677,-52.7944 2.4232,-7.9589 7.1929,-15.1216 13.644,-20.0556 5.3643,-4.1506 11.968,-6.6418 18.5461,-6.9261 6.5497,-0.2945 13.0734,1.8174 17.2789,6.4456 4.295,4.5274 6.4921,11.0821 5.7724,16.9801 -0.0993,0.7334 -0.168,1.4697 -0.3721,2.1724 -0.0921,0.3527 -0.1468,0.7161 -0.262,1.0597 -0.1229,0.3411 -0.2445,0.6811 -0.3526,1.0251 l -0.1648,0.515 -0.2272,0.4881 -0.4411,0.9795 c -0.3472,0.6368 -0.7237,1.2651 -1.1001,1.8956 -0.8259,1.2283 -1.7437,2.424 -2.8222,3.4937 l -0.7914,0.8196 -0.8619,0.7495 c -0.553,0.5312 -1.1953,0.9412 -1.8038,1.402 -2.4618,1.8062 -5.3091,3.0208 -8.1522,3.5009 -0.7192,0.1829 -1.4177,0.1442 -2.1364,0.209 -0.3633,0.045 -0.698,-0.0459 -1.0527,-0.0557 -0.3451,-0.0451 -0.7168,-0.0142 -1.05,-0.1108 -0.6661,-0.1852 -1.3892,-0.2546 -2.0229,-0.567 l -1.0052,-0.3676 c -0.292,-0.1608 -0.6159,-0.293 -0.8881,-0.4818 -1.1599,-0.6849 -2.0772,-1.6804 -2.7921,-2.9094 -0.7106,-1.2321 -1.1477,-2.7274 -1.2881,-4.3069 -0.1802,-1.5809 -0.0528,-3.2473 0.3344,-4.8522 0.1944,-0.801 0.4643,-1.5924 0.8457,-2.3063 0.3728,-0.7132 0.8624,-1.3759 1.5284,-1.701 l 0.0495,-0.0242 c 0.1969,-0.0961 0.2785,-0.3336 0.1824,-0.5304 -0.0749,-0.1535 -0.2366,-0.2368 -0.3972,-0.2205 -1.1063,0.1146 -1.9581,0.8133 -2.6622,1.5032 -0.695,0.7239 -1.244,1.5469 -1.722,2.4061 -0.9456,1.7275 -1.5177,3.6394 -1.7784,5.6437 -0.2367,2.0036 -0.0854,4.1285 0.5929,6.2081 0.6714,2.0759 2.0009,4.0385 3.7103,5.5096 0.4165,0.3892 0.8775,0.6996 1.3296,1.0388 l 1.4081,0.8228 c 0.9292,0.5966 1.9891,0.886 3.0175,1.2807 0.5163,0.1992 1.0569,0.2582 1.5896,0.3884 0.5345,0.0941 1.0752,0.2623 1.6124,0.2836 1.0736,0.0702 2.1746,0.2104 3.2354,0.1044 4.2997,-0.2193 8.3537,-1.6577 11.8505,-3.8341 3.494,-2.1978 6.5548,-5.0799 8.8663,-8.6147 0.5707,-0.8885 1.0711,-1.8329 1.551,-2.7831 l 0.6293,-1.4895 0.3081,-0.7463 0.235,-0.7697 0.444,-1.5453 c 0.1346,-0.5172 0.2015,-1.0471 0.3014,-1.5699 0.2198,-1.0459 0.2788,-2.102 0.3506,-3.1545 0.2093,-4.2228 -0.7252,-8.3357 -2.2729,-12.0886 -1.5405,-3.77 -3.9048,-7.1605 -6.8547,-9.9453 -1.4446,-1.4249 -3.1165,-2.6146 -4.8477,-3.6838 -1.8024,-0.981 -3.6291,-1.8559 -5.5613,-2.3981 -3.8311,-1.2134 -7.8486,-1.4581 -11.7202,-1.1246 -7.7507,0.8187 -14.9834,4.1446 -20.6858,9.1242 -5.4523,4.831 -9.4534,11.0455 -11.8192,17.7482 -1.4843,-14.0111 -0.4218,-27.3935 0.3352,-36.9107 0.2772,-3.4855 0.5166,-6.4951 0.5616,-8.8091 0.2046,-10.5765 -6.3161,-24.2748 -13.2199,-38.7771 -5.7545,-12.0876 -11.7045,-24.5873 -12.4412,-33.2658 -0.6567,-7.7433 -0.4245,-11.7011 -0.149,-13.6064 7.0902,3.8956 14.1017,5.1835 21.2702,6.498 6.3766,1.1686 12.9699,2.3778 19.9003,5.7705 23.47,11.4926 22.343,32.6776 22.2786,33.6363 -0.2022,2.7184 1.8308,5.0914 4.5506,5.3052 0.1325,0.0106 0.2636,0.0154 0.3942,0.0154 2.5588,0 4.7281,-1.9696 4.9323,-4.5641 0.0919,-1.1667 1.9087,-28.7432 -27.7996,-43.289 -8.1571,-3.9944 -15.7613,-5.3884 -22.4702,-6.618 -16.8042,-3.0811 -30.0773,-5.5141 -47.9083,-46.3537 -5.8576,-13.4139 -8.9112,-21.5652 -8.2775,-26.2154 0.489,-3.5919 3.5382,-6.1285 11.0031,-12.0257 5.2728,-4.1666 12.4944,-9.8713 21.1565,-18.4502 28.7476,-28.4695 21.4786,-67.2809 17.1355,-90.4698 -0.9272,-4.9507 -1.7278,-9.226 -1.9875,-12.3846 -0.3386,-4.1162 4.6169,-11.7524 10.355,-20.5939 4.9749,-7.666 10.7745,-16.62 15.9267,-27.1096 2.3367,3.8237 5.8402,5.4883 8.9908,5.6812 1.6556,0.1003 3.2786,-0.1515 4.8155,-0.7118 4.4817,-1.6353 8.2211,-5.8825 9.8436,-11.5739 1.4328,-2.9926 2.5423,-8.925 -0.7959,-25.1566 5.8885,12.1153 11.7404,19.6957 17.7282,22.9647 l 0.3349,0.1549 c 4.4891,1.7159 8.7291,1.9264 12.0842,0.7019 1.523,-0.5552 2.8643,-1.4054 3.9644,-2.5432 2.8103,-2.9105 3.637,-7.2796 2.4295,-12.3406 6.2158,-0.2527 9.8448,-3.6688 11.2399,-7.2499 2.359,-6.0541 -0.6073,-13.3024 -7.2187,-17.7126 -2.3917,-2.2596 -7.6396,-5.1012 -23.8078,-6.8853 6.6416,-0.9379 12.2336,-2.2094 16.734,-3.8499 4.3902,-1.6004 7.7807,-3.5403 10.2069,-5.8282 l 0.2515,-0.2715 c 4.3938,-5.4325 5.5984,-11.3499 3.2216,-15.829 -1.897,-3.5746 -5.7942,-5.7133 -10.9794,-6.1332 1.6878,-5.9879 -0.4379,-10.4971 -3.4098,-12.9332 -5.0274,-4.121 -12.8401,-3.5431 -19.077,1.3747 -2.8878,1.5723 -7.2118,5.6758 -13.9122,20.4727 2.3003,-13.0396 2.0141,-22.4753 -0.8673,-28.5802 l -0.1797,-0.3228 c -3.8028,-5.861 -9.0552,-8.8407 -14.0515,-7.9688 -3.9774,0.7018 -7.2273,3.7384 -9.2348,8.5379 -5.169,-3.4598 -10.1185,-2.8334 -13.3516,-0.7653 -5.4739,3.5017 -7.3487,11.1055 -4.605,18.5634 0.6004,3.2343 3.1632,8.6185 15.1542,19.5712 -11.6854,-6.2281 -20.7449,-8.8797 -27.4405,-8.032 l -0.3619,0.0706 c -6.755,1.8029 -11.2116,5.8704 -11.9311,10.89 -0.5737,4.0056 1.314,8.0304 5.2568,11.4261 -4.8922,3.8423 -5.8317,8.7379 -4.8666,12.4566 1.633,6.2908 8.2821,10.4289 16.2238,10.1324 1.8928,0.2495 4.6761,0.0986 9.4444,-1.6397 3.4415,-1.2546 7.9264,-3.3443 13.8463,-6.698 -9.5367,9.1762 -14.8625,16.9659 -16.1311,23.5932 l -0.0445,0.3675 c -0.3819,6.9753 2.1064,12.4775 6.6567,14.7179 0.9231,0.4546 1.8978,0.7547 2.9098,0.9103 -4.4063,8.4294 -9.1614,15.767 -13.3074,22.1556 -7.2763,11.2121 -12.5336,19.3131 -11.9183,26.7983 0.3018,3.6684 1.1464,8.1764 2.1239,13.3965 4.2391,22.6327 10.6447,56.8358 -14.3692,81.6075 -1.8642,1.8464 -3.6438,3.5381 -5.3504,5.1104 C 137.8,337.0224 156.9169,183.3055 243.2175,102.1595 296.2506,52.2932 372.0842,24.6561 446.0286,28.2113 c 72.8284,3.5073 138.2989,36.1221 189.3328,94.3181 61.6889,70.3446 74.1644,153.8725 73.7668,211.5563 -0.3331,48.3999 -9.5183,87.2392 -13.7875,102.7307 -1.8799,-1.7185 -3.8549,-3.59 -5.9299,-5.6449 -25.014,-24.7716 -18.6078,-58.9743 -14.3687,-81.607 0.978,-5.2201 1.8226,-9.7286 2.1244,-13.397 0.6152,-7.4852 -4.6416,-15.5862 -11.9183,-26.7983 -5.6051,-8.6365 -12.3214,-19.0052 -17.783,-31.4722 0.8141,0.7273 1.6366,1.3737 2.4705,1.9176 l 0.3217,0.1807 c 4.3411,2.0618 8.5518,2.6032 11.9923,1.6449 1.5617,-0.4344 2.9653,-1.1771 4.1511,-2.2253 3.0294,-2.6818 4.1953,-6.9728 3.3873,-12.1128 6.2165,0.2342 10.1016,-2.8875 11.7725,-6.3486 2.8253,-5.8511 0.4351,-13.3091 -5.8111,-18.223 -2.2076,-2.4398 -7.2173,-5.6831 -23.1962,-8.7263 6.6946,-0.4156 12.3689,-1.2457 16.9838,-2.5293 4.5019,-1.2521 8.0338,-2.9209 10.6315,-5.012 l 0.272,-0.2511 c 4.8053,-5.0721 6.469,-10.8772 4.4498,-15.5285 -1.6116,-3.712 -5.3295,-6.149 -10.4661,-6.9732 2.151,-5.8376 0.3846,-10.4993 -2.3878,-13.1603 -4.6897,-4.5017 -12.5235,-4.5366 -19.126,-0.1217 -2.7369,1.2232 -6.8297,4.4544 -13.4697,15.7961 0.2332,-1.2473 0.4704,-2.4968 0.743,-3.7658 0.2615,-1.2169 0.0331,-2.4152 -0.5253,-3.4251 1.1027,-7.5232 0.8215,-13.4437 -0.8483,-17.8438 l -0.1539,-0.3359 c -3.3328,-6.1405 -8.3359,-9.5218 -13.3853,-9.0434 -4.0201,0.3886 -7.4976,3.1616 -9.8743,7.7894 -4.8826,-3.8535 -9.8658,-3.6162 -13.2508,-1.8073 -5.7311,3.0629 -8.1948,10.4967 -6.0428,18.1463 0.3456,3.2713 2.4794,8.8395 13.5769,20.6965 -11.1624,-7.123 -19.9868,-10.4751 -26.728,-10.1537 l -0.3663,0.042 c -6.8754,1.269 -11.6365,4.9755 -12.7464,9.9234 -0.8852,3.9484 0.682,8.1086 4.347,11.8023 -5.1777,3.4478 -6.4973,8.255 -5.8259,12.0377 1.1358,6.3993 7.4409,11.0448 15.3814,11.3703 1.8675,0.3968 4.6542,0.4641 9.5438,-0.8959 3.5291,-0.9816 8.1636,-2.7142 14.3278,-5.5945 -10.2251,8.4021 -16.1439,15.7515 -17.927,22.2592 l -0.0731,0.3628 c -0.9265,6.9241 1.1238,12.604 5.4851,15.1935 3.479,2.0663 7.9203,1.8654 12.5684,-0.4757 1.6742,5.9919 5.8353,8.7359 9.6415,9.2701 1.6428,0.2295 3.2805,0.1055 4.8564,-0.3329 4.5959,-1.2797 8.6561,-5.2214 10.7186,-10.7685 0.8245,-1.4238 1.6255,-3.5768 1.9734,-7.3883 6.174,16.9544 14.9725,30.5207 22.0812,41.4748 5.7386,8.8415 10.6936,16.4777 10.355,20.5939 -0.2593,3.159 -1.0603,7.4344 -1.988,12.3851 -4.3427,23.1889 -11.6116,61.9998 17.1345,90.4693 4.4673,4.4239 8.5473,8.0787 12.1782,11.1573 0.003,0.003 0.006,0.005 0.01,0.008 3.4063,2.8877 6.4175,5.2688 8.9692,7.2849 7.4654,5.8972 10.5146,8.4337 11.0042,12.0257 0.6324,4.6507 -2.4216,12.802 -8.2783,26.2158 z M 231.9787,218.8144 c 6.9194,-2.5224 14.5735,1.042 17.0959,7.9613 2.5224,6.9194 -1.0421,14.5735 -7.9614,17.0959 -6.9193,2.5224 -14.5734,-1.0421 -17.0959,-7.9615 -2.5224,-6.9192 1.0421,-14.5733 7.9614,-17.0957 z m 402.9594,25.0573 c -6.9193,2.5224 -14.5734,-1.0421 -17.0958,-7.9615 -2.5223,-6.9194 1.0421,-14.5735 7.9614,-17.0958 6.9194,-2.5224 14.5735,1.042 17.0958,7.9613 2.5225,6.9195 -1.0418,14.5736 -7.9614,17.096 z" />
	<path
   style="fill:#c87137"
   id="path1102"
   d="m 542.1581,322.5545 c -21.397,1.3311 -42.3382,13.1801 -52.7581,31.9158 -8.3793,15.0668 -9.5293,33.9526 -3.0397,49.9247 8.1732,20.1157 26.9583,34.0345 46.5509,43.3922 20.0171,9.5603 41.7724,15.4666 63.8759,17.3413 9.0593,0.7685 18.5418,0.7928 26.7889,-3.0346 6.3568,-2.9501 11.734,-8.7552 13.3527,-15.3908 5.2834,-14.0971 2.1395,-33.2844 -2.499,-48.806 -6.1384,-20.5408 -17.1877,-39.9025 -33.3181,-54.0238 -16.1303,-14.1213 -37.5565,-22.65 -58.9535,-21.3188 z" />
	<path
   style="fill:#c87137"
   id="path1104"
   d="m 224.9975,446.7035 c 1.6189,6.6353 6.996,12.4404 13.3526,15.3905 8.2471,3.8274 17.7296,3.8031 26.7889,3.0346 22.1035,-1.8748 43.8588,-7.781 63.8758,-17.3413 19.5927,-9.3577 38.3779,-23.2766 46.551,-43.3922 6.4896,-15.972 5.3397,-34.8578 -3.0397,-49.9247 -10.4199,-18.7357 -31.3611,-30.5847 -52.7581,-31.9158 -21.397,-1.3312 -42.8232,7.1975 -58.9536,21.3188 -16.1304,14.1213 -27.1797,33.4831 -33.3181,54.0238 -4.6384,15.5217 -7.7824,34.7092 -2.4988,48.8063 z" />
	<path
   style="fill:#c87137"
   id="path1106"
   d="m 256.0485,567.6639 c 1.1144,-4.4898 1.2258,-9.1611 0.3542,-13.7585 -0.9031,-4.5792 -3.0376,-9.008 -6.2379,-12.5659 -3.1934,-3.5684 -7.3079,-6.2214 -11.6534,-8.0524 -4.3571,-1.8484 -8.9493,-2.976 -13.554,-3.6563 -2.3587,-0.324 -4.4894,-0.5621 -6.6759,-0.8936 -2.1748,-0.3311 -4.3313,-0.7288 -6.4678,-1.1846 -4.2679,-0.9261 -8.4375,-2.1586 -12.4007,-3.7506 -7.9099,-3.1218 -15.0589,-8.0261 -19.1696,-14.8076 -2.0729,-3.3535 -3.3368,-7.1399 -3.7565,-10.9992 -0.0608,-0.4791 -0.0875,-0.9687 -0.1215,-1.4422 -0.0162,-0.4565 -0.0328,-0.911 -0.0184,-1.3643 0.0225,-0.9056 0.0966,-1.8043 0.2477,-2.6835 0.2986,-1.7595 0.8674,-3.4353 1.639,-4.9733 0.7619,-1.5482 1.8001,-2.9131 2.9613,-4.1442 1.1904,-1.2112 2.5712,-2.2291 4.0824,-3.0956 1.5291,-0.8413 3.2046,-1.4868 4.9837,-1.9761 0.8701,-0.2413 1.8492,-0.4384 2.7057,-0.5623 0.7739,-0.1051 1.5305,-0.159 2.2699,-0.1232 1.474,0.0836 2.8906,0.496 4.2298,1.2714 0.6669,0.3869 1.3187,0.8523 1.9131,1.4195 0.605,0.5521 1.187,1.1703 1.6858,1.871 2.0389,2.7284 3.2146,6.5745 2.5833,9.6026 -0.1553,0.7474 -0.4317,1.4107 -0.8016,2.0056 l -0.1403,0.2287 -0.2168,0.2492 c -0.1443,0.1675 -0.2859,0.3423 -0.4441,0.4882 -0.303,0.3176 -0.6279,0.6016 -0.9662,0.8644 -1.353,1.0441 -3.0029,1.6151 -4.7523,1.5643 -1.7424,-0.067 -3.5258,-0.8489 -4.7836,-2.234 -1.2562,-1.3815 -1.8408,-3.4269 -1.4521,-5.5513 0.0516,-0.2713 -0.1265,-0.5331 -0.3978,-0.5847 -0.2235,-0.0425 -0.4422,0.0746 -0.5406,0.2675 -0.5373,1.0741 -0.8346,2.3131 -0.8329,3.5985 -0.0135,1.291 0.376,2.5894 0.9926,3.7671 1.2592,2.3712 3.6329,4.0955 6.3229,4.781 2.7004,0.7186 5.7174,0.2476 8.1946,-1.0571 0.6211,-0.3228 1.2198,-0.6868 1.7785,-1.0924 0.2911,-0.1941 0.5529,-0.4121 0.8191,-0.6292 l 0.3992,-0.3273 0.4203,-0.4018 c 1.1317,-1.0812 1.9686,-2.4209 2.5539,-3.795 1.1848,-2.7787 1.3174,-5.674 1.0265,-8.4147 -0.3624,-2.737 -1.2021,-5.391 -2.5805,-7.8183 -1.3573,-2.4301 -3.2315,-4.6765 -5.6368,-6.4153 -2.371,-1.7722 -5.3114,-2.944 -8.3056,-3.3542 -1.4983,-0.2099 -3.0033,-0.2314 -4.465,-0.0897 -1.3778,0.1331 -2.619,0.3287 -3.9352,0.6177 -1.2978,0.2711 -2.5948,0.6499 -3.8664,1.1095 -1.2677,0.4838 -2.5163,1.0456 -3.7282,1.7022 -4.8701,2.5975 -8.9265,7.014 -11.0787,12.1428 -2.2146,5.095 -2.5456,10.8719 -1.5222,15.9372 0.9534,5.0331 2.9607,9.8521 5.8399,14.0163 2.8775,4.1663 6.5617,7.674 10.6328,10.3749 4.0645,2.7245 8.4544,4.768 12.9327,6.2823 4.4859,1.513 9.0617,2.5389 13.6417,3.2481 2.2919,0.3443 4.5852,0.6227 6.8788,0.8292 2.2812,0.2042 4.6382,0.3254 6.753,0.4862 4.3294,0.3383 8.6198,1.0726 12.6688,2.4625 4.0445,1.375 7.8382,3.4654 10.8856,6.4125 6.1891,5.8602 8.5081,15.2952 7.1451,23.9592 l -0.007,0.043 c -0.0424,0.2697 0.1418,0.5228 0.4115,0.5652 0.254,0.0399 0.4943,-0.1241 0.556,-0.3694 z" />
	<path
   style="fill:#c87137"
   id="path1108"
   d="m 231.9393,469.0677 c -0.2172,-0.1201 -0.4383,-0.2267 -0.6619,-0.3216 -0.103,-0.0539 -0.2068,-0.1056 -0.3094,-0.1611 -3.413,-1.8477 -7.6724,-0.5775 -9.5192,2.8326 -1.8468,3.411 -0.5785,7.6734 2.8325,9.5192 0.3628,0.1964 0.7285,0.387 1.0961,0.5698 0.0573,0.0286 0.1165,0.0476 0.1741,0.0745 0.0473,0.0253 0.0939,0.0513 0.1412,0.0764 1.0477,0.5543 2.1718,0.8174 3.2804,0.8174 2.5181,0 4.9521,-1.3582 6.2126,-3.738 1.8148,-3.4285 0.5069,-7.6782 -2.9206,-9.493 z" />
	<path
   style="fill:#c87137"
   id="path1110"
   d="m 228.5506,368.8301 c 1.1377,0.6888 2.3914,1.0168 3.6306,1.0168 2.3759,0 4.6938,-1.2064 6.0143,-3.3869 l 0.4963,-0.8136 c 2.0296,-3.3046 0.9964,-7.6299 -2.3082,-9.6595 -3.3037,-2.0315 -7.6299,-0.9974 -9.6595,2.3073 l -0.5437,0.891 c -2.0083,3.3182 -0.947,7.6366 2.3702,9.6449 z" />
	<path
   style="fill:#c87137"
   id="path1112"
   d="m 216.7619,397.4051 c 0.771,0.2708 1.5565,0.3995 2.3305,0.3995 2.8964,0 5.609,-1.8061 6.6247,-4.6938 l 0.326,-0.9219 c 1.2973,-3.6548 -0.6133,-7.6695 -4.2691,-8.9668 -3.6577,-1.2992 -7.6705,0.6133 -8.9668,4.2691 l -0.3396,0.9587 c -1.2876,3.6587 0.6356,7.6675 4.2943,8.9552 z" />
	<path
   style="fill:#c87137"
   id="path1114"
   d="m 290.9166,481.2182 c 3.7777,-0.8794 6.1275,-4.6541 5.2472,-8.4318 -0.8794,-3.7767 -4.6551,-6.1246 -8.4318,-5.2472 l -0.9529,0.2196 c -3.7806,0.8687 -6.1401,4.6377 -5.2713,8.4173 0.7468,3.2505 3.6384,5.4513 6.8385,5.4513 0.5205,0 1.0496,-0.058 1.5788,-0.1799 z" />
	<path
   style="fill:#c87137"
   id="path1116"
   d="m 317.8895,472.5533 c 0.8494,0 1.7142,-0.1548 2.5529,-0.4827 l 0.9471,-0.3715 c 3.6084,-1.4211 5.3826,-5.4987 3.9615,-9.108 -1.4211,-3.6084 -5.4997,-5.3787 -9.108,-3.9615 l -0.9103,0.3579 c -3.6132,1.4114 -5.3981,5.4842 -3.9867,9.0964 1.0835,2.7736 3.7352,4.4694 6.5435,4.4694 z" />
	<path
   style="fill:#c87137"
   id="path1118"
   d="m 345.735,459.1636 c 1.2112,0 2.4388,-0.3144 3.5581,-0.9742 0.3086,-0.1809 0.6153,-0.3647 0.921,-0.5495 3.3211,-2.0045 4.3891,-6.321 2.3856,-9.6411 -2.0045,-3.321 -6.32,-4.3871 -9.6411,-2.3856 l -0.7952,0.476 c -3.3423,1.9687 -4.4548,6.2736 -2.4862,9.615 1.3099,2.223 3.6519,3.4594 6.0578,3.4594 z" />
	<path
   style="fill:#c87137"
   id="path1120"
   d="m 370.2227,440.4116 c 1.8158,0 3.6316,-0.7004 5.0063,-2.0973 l 0.7275,-0.743 c 2.7029,-2.7822 2.6381,-7.2284 -0.1432,-9.9313 -2.7823,-2.701 -7.2294,-2.6371 -9.9313,0.1432 l -0.6656,0.681 c -2.7203,2.7648 -2.6836,7.2119 0.0813,9.9313 1.3679,1.3457 3.1469,2.0161 4.925,2.0161 z" />
	<path
   style="fill:#c87137"
   id="path1122"
   d="m 384.8149,414.4728 c 0.8803,0.3657 1.7916,0.5379 2.6894,0.5379 2.7542,0 5.3681,-1.6301 6.4893,-4.332 0.1403,-0.3376 0.2786,-0.6772 0.4141,-1.0177 1.4366,-3.6026 -0.3192,-7.6879 -3.9218,-9.1245 -3.6036,-1.4395 -7.6889,0.3192 -9.1245,3.9218 -0.1122,0.2805 -0.2254,0.5582 -0.3405,0.8358 -1.487,3.5823 0.2117,7.6918 3.794,9.1787 z" />
	<path
   style="fill:#c87137"
   id="path1124"
   d="m 210.5377,427.6826 c 0.3531,0.0532 0.7043,0.0784 1.0506,0.0784 3.4178,0 6.4138,-2.4988 6.9362,-5.9814 l 0.1451,-0.9471 c 0.5969,-3.8318 -2.0248,-7.4228 -5.8576,-8.0207 -3.8318,-0.5969 -7.4228,2.0247 -8.0207,5.8576 l -0.1567,1.0264 c -0.5756,3.8357 2.0673,7.4112 5.9031,7.9868 z" />
	<path
   style="fill:#c87137"
   id="path1126"
   d="m 305.1953,303.3974 -1.0467,0.1577 c -3.8328,0.5979 -6.4544,4.1888 -5.8576,8.0207 0.5408,3.4662 3.5291,5.9427 6.9304,5.9427 0.3599,0 0.7236,-0.028 1.0903,-0.0851 l 0.9268,-0.1403 c 3.8376,-0.564 6.4912,-4.1327 5.9263,-7.9694 -0.564,-3.8376 -4.1318,-6.498 -7.9695,-5.9263 z" />
	<path
   style="fill:#c87137"
   id="path1128"
   d="m 378.5181,351.3909 c 1.2566,2.3914 3.6964,3.7574 6.2223,3.7574 1.1009,0 2.2192,-0.2602 3.2611,-0.8078 3.4333,-1.8042 4.7538,-6.0501 2.9496,-9.4834 l -0.5398,-1.0032 c -1.8719,-3.3965 -6.144,-4.6319 -9.5405,-2.759 -3.3965,1.8729 -4.6319,6.1439 -2.759,9.5404 z" />
	<path
   style="fill:#c87137"
   id="path1130"
   d="m 276.0526,327.3279 c 1.0999,0 2.2153,-0.2592 3.2562,-0.8049 0.2709,-0.1422 0.5417,-0.2834 0.8136,-0.4218 3.4555,-1.7616 4.8283,-5.9911 3.0676,-9.4466 -1.7616,-3.4555 -5.992,-4.8293 -9.4466,-3.0676 -0.3202,0.1635 -0.6395,0.3299 -0.9587,0.4973 -3.4352,1.8022 -4.7586,6.0472 -2.9573,9.4814 1.2557,2.3943 3.6974,3.7622 6.2252,3.7622 z" />
	<path
   style="fill:#c87137"
   id="path1132"
   d="m 368.0006,318.6455 c -3.1363,-2.2792 -7.5292,-1.5846 -9.8094,1.5536 -2.2802,3.1373 -1.5846,7.5292 1.5536,9.8094 0.2409,0.1751 0.4818,0.3521 0.7207,0.5311 1.2625,0.9461 2.7397,1.4027 4.2043,1.4027 2.137,0 4.2469,-0.9713 5.6264,-2.8132 2.3256,-3.1044 1.6939,-7.505 -1.4105,-9.8307 -0.293,-0.2195 -0.5881,-0.4372 -0.8851,-0.6529 z" />
	<path
   style="fill:#c87137"
   id="path1134"
   d="m 258.2457,472.1576 -0.9732,0.0745 c -3.8676,0.2931 -6.765,3.6664 -6.4719,7.5341 0.2796,3.6867 3.3578,6.4922 6.9953,6.4922 0.178,0 0.3579,-0.007 0.5388,-0.0203 l 1.0158,-0.0784 c 3.8667,-0.3057 6.7543,-3.6867 6.4486,-7.5534 -0.3047,-3.8677 -3.6973,-6.7379 -7.5534,-6.4487 z" />
	<path
   style="fill:#c87137"
   id="path1136"
   d="m 251.2079,345.5604 c 1.7781,0 3.5571,-0.6704 4.925,-2.0161 l 0.6917,-0.6772 c 2.7764,-2.7087 2.8316,-7.1548 0.1229,-9.9303 -2.7058,-2.7764 -7.1539,-2.8316 -9.9303,-0.1229 l -0.7343,0.7178 c -2.7648,2.7194 -2.8016,7.1665 -0.0813,9.9313 1.3747,1.397 3.1896,2.0974 5.0063,2.0974 z" />
	<path
   style="fill:#c87137"
   id="path1138"
   d="m 399.6596,376.3226 c -0.238,-3.8705 -3.5639,-6.8047 -7.4393,-6.5802 -3.8705,0.237 -6.8172,3.5677 -6.5802,7.4393 0.0184,0.298 0.0339,0.5949 0.0474,0.8929 0.1761,3.7632 3.2814,6.6963 7.0098,6.6963 0.1103,0 0.2215,-0.003 0.3328,-0.008 3.8744,-0.1809 6.8685,-3.4681 6.6886,-7.3425 -0.0175,-0.3657 -0.0369,-0.7314 -0.0591,-1.098 z" />
	<path
   style="fill:#c87137"
   id="path1140"
   d="m 337.5586,304.6879 c -3.7787,-0.8871 -7.5592,1.4434 -8.4512,5.2181 -0.892,3.7747 1.4434,7.5583 5.2181,8.4512 0.297,0.0696 0.5949,0.1422 0.8919,0.2157 0.5688,0.1412 1.1386,0.209 1.6997,0.209 3.1498,0 6.0153,-2.135 6.8095,-5.3304 0.9355,-3.7641 -1.3573,-7.5737 -5.1214,-8.5092 -0.3491,-0.087 -0.6974,-0.1712 -1.0466,-0.2544 z" />
	<path
   style="fill:#c87137"
   id="path1142"
   d="m 213.9032,442.9587 c -1.5169,-0.184 -2.973,0.1345 -4.2143,0.8157 -3.5002,1.0043 -5.6885,4.5481 -4.9363,8.1704 0.0774,0.3695 0.1567,0.7381 0.2399,1.1048 0.742,3.2572 3.6364,5.4658 6.8414,5.4658 0.5166,0 1.0409,-0.0571 1.5652,-0.1761 1.4936,-0.3401 2.7612,-1.1373 3.702,-2.2052 1.5834,-1.1385 2.6904,-2.923 2.8947,-5.0164 l 0.0377,-0.3454 c 0.4654,-3.8511 -2.28,-7.3492 -6.1303,-7.8136 z" />
	<path
   style="fill:#c87137"
   id="path1144"
   d="m 486.5655,351.3909 0.4073,-0.7556 c 1.8729,-3.3965 0.6375,-7.6676 -2.759,-9.5404 -3.3965,-1.8729 -7.6676,-0.6375 -9.5405,2.759 l -0.1906,0.3492 c -0.118,0.2177 -0.2351,0.4353 -0.3502,0.654 -1.8042,3.4333 -0.4837,7.6792 2.9496,9.4834 1.0428,0.5485 2.1592,0.8078 3.2611,0.8078 2.525,0 4.9657,-1.367 6.2223,-3.7574 z" />
	<path
   style="fill:#c87137"
   id="path1146"
   d="m 527.526,304.6879 c -0.3492,0.0832 -0.6974,0.1674 -1.0467,0.2544 -3.7642,0.9355 -6.0569,4.7451 -5.1214,8.5092 0.7943,3.1953 3.6597,5.3304 6.8095,5.3304 0.5611,0 1.1309,-0.0677 1.6997,-0.209 0.297,-0.0735 0.5949,-0.1461 0.8919,-0.2157 3.7748,-0.8929 6.1101,-4.6764 5.2181,-8.4512 -0.8928,-3.7747 -4.6753,-6.1052 -8.4511,-5.2181 z" />
	<path
   style="fill:#c87137"
   id="path1148"
   d="m 497.084,318.6455 c -0.297,0.2157 -0.592,0.4334 -0.8852,0.653 -3.1044,2.3256 -3.7361,6.7263 -1.4105,9.8307 1.3795,1.8419 3.4894,2.8132 5.6264,2.8132 1.4646,0 2.9419,-0.4566 4.2043,-1.4027 0.2389,-0.179 0.4798,-0.356 0.7207,-0.5311 3.1382,-2.2802 3.8338,-6.6721 1.5536,-9.8094 -2.2802,-3.1373 -6.671,-3.8329 -9.8093,-1.5537 z" />
	<path
   style="fill:#c87137"
   id="path1150"
   d="m 472.3874,384.7718 c 3.7274,0 6.8337,-2.9331 7.0097,-6.6963 0.0135,-0.298 0.029,-0.595 0.0474,-0.8929 0.237,-3.8715 -2.7097,-7.2023 -6.5802,-7.4393 -3.8763,-0.237 -7.2023,2.7087 -7.4393,6.5802 -0.0222,0.3666 -0.0416,0.7323 -0.059,1.098 -0.1799,3.8744 2.8141,7.1616 6.6886,7.3425 0.1113,0.005 0.2215,0.008 0.3328,0.008 z" />
	<path
   style="fill:#c87137"
   id="path1152"
   d="m 646.415,420.8325 0.1451,0.9471 c 0.5224,3.4826 3.5184,5.9814 6.9363,5.9814 0.3463,0 0.6974,-0.0252 1.0505,-0.0784 3.8358,-0.5756 6.4787,-4.1511 5.9031,-7.9868 l -0.1567,-1.0264 c -0.5978,-3.8328 -4.1927,-6.4554 -8.0206,-5.8576 -3.8329,0.5978 -6.4545,4.1888 -5.8577,8.0207 z" />
	<path
   style="fill:#c87137"
   id="path1154"
   d="m 480.2697,414.4728 c 3.5823,-1.4869 5.281,-5.5964 3.7941,-9.1786 -0.1151,-0.2776 -0.2283,-0.5553 -0.3405,-0.8358 -1.4366,-3.6026 -5.5219,-5.3603 -9.1245,-3.9218 -3.6026,1.4366 -5.3584,5.5219 -3.9218,9.1245 0.1354,0.3405 0.2738,0.6801 0.414,1.0177 1.1222,2.7019 3.7351,4.332 6.4893,4.332 0.8968,-1e-4 1.8091,-0.1733 2.6894,-0.538 z" />
	<path
   style="fill:#c87137"
   id="path1156"
   d="m 522.126,445.6133 c -3.3211,-2.0044 -7.6367,-0.9355 -9.6411,2.3856 -2.0035,3.3201 -0.9355,7.6366 2.3856,9.6411 0.3057,0.1848 0.6124,0.3686 0.921,0.5495 1.1193,0.6598 2.3469,0.9742 3.5581,0.9742 2.4049,0 4.748,-1.2373 6.0578,-3.4594 1.9687,-3.3414 0.8561,-7.6463 -2.4862,-9.615 z" />
	<path
   style="fill:#c87137"
   id="path1158"
   d="m 557.8461,317.2931 0.9268,0.1403 c 0.3666,0.0571 0.7304,0.0851 1.0903,0.0851 3.4014,0 6.3896,-2.4765 6.9304,-5.9427 0.5969,-3.8318 -2.0248,-7.4228 -5.8576,-8.0207 l -1.0467,-0.1577 c -3.8444,-0.5698 -7.4064,2.0886 -7.9694,5.9263 -0.565,3.8367 2.0886,7.4054 5.9262,7.9694 z" />
	<path
   style="fill:#c87137"
   id="path1160"
   d="m 639.0416,392.1888 0.326,0.9219 c 1.0157,2.8886 3.7274,4.6938 6.6248,4.6938 0.7729,0 1.5604,-0.1287 2.3304,-0.3995 3.6587,-1.2876 5.5818,-5.2965 4.2943,-8.9552 l -0.3395,-0.9587 c -1.2973,-3.6558 -5.311,-5.5674 -8.9668,-4.2691 -3.6559,1.2973 -5.5665,5.312 -4.2692,8.9668 z" />
	<path
   style="fill:#c87137"
   id="path1162"
   d="m 499.2026,427.7822 c -2.7029,-2.7813 -7.1481,-2.8451 -9.9313,-0.1432 -2.7813,2.7029 -2.8461,7.1491 -0.1432,9.9313 l 0.7275,0.743 c 1.3747,1.3969 3.1895,2.0973 5.0063,2.0973 1.7781,0 3.5571,-0.6704 4.925,-2.0161 2.7648,-2.7194 2.8016,-7.1665 0.0813,-9.9313 z" />
	<path
   style="fill:#c87137"
   id="path1164"
   d="m 606.8389,472.1576 c -3.8502,-0.2921 -7.2487,2.581 -7.5534,6.4486 -0.3057,3.8667 2.582,7.2477 6.4487,7.5534 l 1.0157,0.0784 c 0.1809,0.0135 0.3599,0.0203 0.5389,0.0203 3.6374,0 6.7156,-2.8055 6.9952,-6.4922 0.2931,-3.8676 -2.6042,-7.2409 -6.4719,-7.5341 z" />
	<path
   style="fill:#c87137"
   id="path1166"
   d="m 576.7394,481.6274 c 3.1992,0 6.0917,-2.2008 6.8385,-5.4513 0.8687,-3.7796 -1.4908,-7.5486 -5.2714,-8.4173 l -0.9529,-0.2196 c -3.7796,-0.8784 -7.5524,1.4695 -8.4318,5.2472 -0.8803,3.7777 1.4695,7.5524 5.2472,8.4318 l 0.9916,0.2293 c 0.5292,0.1219 1.0583,0.1799 1.5788,0.1799 z" />
	<path
   style="fill:#c87137"
   id="path1168"
   d="m 544.6431,472.0706 c 0.8387,0.3279 1.7036,0.4827 2.5529,0.4827 2.8083,0 5.46,-1.6958 6.5435,-4.4694 1.4114,-3.6123 -0.3734,-7.685 -3.9866,-9.0964 l -0.9103,-0.3579 c -3.6113,-1.4211 -7.687,0.3531 -9.108,3.9615 -1.4211,3.6094 0.3531,7.6869 3.9615,9.108 z" />
	<path
   style="fill:#c87137"
   id="path1170"
   d="m 608.9517,343.5443 c 1.3679,1.3456 3.147,2.0161 4.925,2.0161 1.8158,0 3.6316,-0.7004 5.0063,-2.0973 2.7203,-2.7648 2.6835,-7.2119 -0.0813,-9.9313 l -0.7343,-0.7178 c -2.7745,-2.7097 -7.2235,-2.6536 -9.9303,0.1229 -2.7087,2.7755 -2.6536,7.2216 0.1229,9.9303 z" />
	<path
   style="fill:#c87137"
   id="path1172"
   d="m 626.8892,366.46 c 1.3204,2.1805 3.6384,3.3869 6.0143,3.3869 1.2383,0 2.493,-0.3279 3.6306,-1.0168 3.3172,-2.0083 4.3784,-6.3268 2.3701,-9.6449 l -0.5436,-0.891 c -2.0287,-3.3046 -6.3549,-4.3359 -9.6595,-2.3073 -3.3046,2.0296 -4.3378,6.3548 -2.3082,9.6595 z" />
	<path
   style="fill:#c87137"
   id="path1174"
   d="m 584.9622,326.1012 c 0.2719,0.1383 0.5427,0.2796 0.8136,0.4218 1.0409,0.5456 2.1563,0.8049 3.2562,0.8049 2.5269,0 4.9695,-1.3689 6.2252,-3.7622 1.8013,-3.4343 0.4778,-7.6792 -2.9573,-9.4814 -0.3193,-0.1674 -0.6385,-0.3338 -0.9587,-0.4973 -3.4565,-1.7607 -7.685,-0.3879 -9.4467,3.0676 -1.7605,3.4556 -0.3878,7.685 3.0677,9.4466 z" />
	<path
   style="fill:#c87137"
   id="path1176"
   d="m 634.1156,468.585 c -0.1035,0.0561 -0.2085,0.1084 -0.3125,0.1627 -0.2222,0.0944 -0.4418,0.2007 -0.6578,0.32 l -0.326,0.1761 c -3.4275,1.8148 -4.7354,6.0646 -2.9206,9.493 1.2606,2.3798 3.6945,3.738 6.2126,3.738 1.1077,0 2.2327,-0.2631 3.2804,-0.8174 0.0486,-0.0258 0.0965,-0.0524 0.1449,-0.0784 0.0561,-0.0262 0.1138,-0.0447 0.1696,-0.0725 0.3676,-0.1828 0.7333,-0.3734 1.096,-0.5698 3.4101,-1.8458 4.6793,-6.1082 2.8326,-9.5192 -1.8459,-3.41 -6.1053,-4.6792 -9.5192,-2.8325 z" />
	<path
   style="fill:#c87137"
   id="path1178"
   d="m 655.3778,443.7698 c -1.2498,-0.6814 -2.7146,-0.9969 -4.2371,-0.8062 -3.8473,0.4866 -6.5724,4.0002 -6.0859,7.8485 l 0.0339,0.3057 c 0.2043,2.0934 1.3113,3.8779 2.8947,5.0164 0.9408,1.0679 2.2084,1.8651 3.702,2.2052 0.5243,0.119 1.0486,0.1761 1.5652,0.1761 3.205,0 6.0994,-2.2086 6.8414,-5.4658 0.0832,-0.3666 0.1625,-0.7352 0.2399,-1.1048 0.7534,-3.6285 -1.4435,-7.1777 -4.9541,-8.1751 z" />
	<path
   style="fill:#c87137"
   id="path1180"
   d="m 351.8499,92.5629 c 3.2469,-11.9097 12.8277,-22.7649 25.1632,-25.4556 3.9431,-1.2911 7.7805,0.6417 11.3132,2.1792 4.8456,2.271 10.4295,3.0837 15.6621,1.7569 7.5468,-1.9465 14.1629,-6.4252 21.7501,-8.2622 8.4341,-1.6497 18.1638,-1.8266 25.4688,3.4151 3.1847,2.1584 5.2104,5.7216 8.5209,7.6677 0.3686,-11.4702 -5.4265,-22.7696 -14.8368,-29.281 -4.7805,-3.1885 -11.3598,-4.1969 -16.5512,-1.3845 -3.8681,2.0284 -6.2115,5.9801 -9.9025,8.2366 -2.6202,1.3114 -5.3705,-0.6037 -7.6016,-1.8283 -3.2196,-2.3185 -6.8732,-4.2591 -10.9359,-4.3136 l -4.346,0.616 -10e-4,-2e-4 c -5.7987,1.014 -7.1231,7.5605 -11.6226,10.2837 -6.3149,1.8329 -11.0697,-5.1689 -17.3897,-4.1261 -8.7784,0.2727 -15.0005,8.0262 -17.5498,15.7855 -4.6974,11.5437 -3.9727,24.6574 0.3192,36.1409 1.1115,-3.7482 1.706,-7.6197 2.5396,-11.4301 z" />
	<path
   style="fill:#c87137"
   id="path1182"
   d="m 507.4101,68.4583 c 5.6001,5.2404 5.3974,14.0263 2.3475,20.5591 -2.0378,3.9964 -4.3649,8.0377 -4.8327,12.5847 -0.1578,7.5973 7.5149,13.2491 5.9334,21.0756 -1.7741,9.225 -8.2292,16.96 -15.6577,22.3864 -5.3177,5.1463 -9.639,11.2077 -14.3894,16.8589 -4.9165,5.3695 -12.1926,9.4507 -19.6745,8.1863 -4.3014,-0.3771 -8.6068,-0.7496 -12.9228,-0.938 2.6345,6.5164 8.5271,11.7962 15.2335,13.8517 7.3905,1.0083 15.8494,-1.3326 20.562,-7.4101 2.8795,-5.0836 5.6696,-10.224 8.6569,-15.247 3.4183,-5.4819 9.132,-9.2724 15.3584,-10.8066 7.8199,-2.0347 15.363,-5.9478 20.7169,-12.1056 4.0813,-4.5041 5.8096,-11.0516 4.3193,-16.9705 -1.5761,-9.3974 -7.6177,-17.1923 -9.9978,-26.317 -0.3456,-5.3173 2.7946,-10.1046 3.7612,-15.25 2.0543,-8.1372 0.3906,-17.6519 -5.7456,-23.6763 -6.0067,-5.7446 -14.5596,-7.9256 -22.711,-7.5697 l 10e-4,5e-4 c -0.5434,0.0238 -1.0854,0.0588 -1.6242,0.1047 -14.2689,1.713 -24.517,13.5016 -32.0051,24.7723 9.1553,-0.18 17.4247,-5.4132 26.4469,-6.8593 5.4077,-1.1842 11.9689,-1.3888 16.2234,2.7699 z" />
	<path
   style="fill:#c87137"
   id="path1184"
   d="m 310.5862,132.9129 c 8.3268,7.3338 17.8899,13.984 28.7999,16.6677 0.9592,-7.5 -1.3808,-15.9108 3.4947,-22.4835 4.0511,-5.6311 10.5048,-8.8486 16.8327,-11.2484 -7.5246,-4.5282 -14.9819,-9.457 -20.8563,-16.0694 -3.0723,-3.6613 -6.0067,-8.2299 -5.432,-13.2304 0.0428,-4.8305 2.9201,-9.6085 1.3111,-14.408 -1.8445,-2.6628 -4.8892,-5.4929 -8.2841,-5.0575 h -1e-4 c -0.485,0.0622 -0.9772,0.1909 -1.474,0.3964 -8.4709,2.2176 -12.6187,11.9773 -11.7635,20.099 0.2408,3.7868 3.0278,7.014 2.6915,10.8578 -3.5663,6.1321 -11.7422,8.583 -13.8146,15.8025 -2.1981,7.3999 3.4911,13.9801 8.4947,18.6738 z" />
	<path
   style="fill:#c87137"
   id="path1186"
   d="m 361.5242,94.8649 c -2.7058,12.3981 6.8139,23.076 17.2722,29.0674 13.3335,7.6217 28.9143,13.537 44.9687,12.1326 1.3178,-6.1768 -0.1264,-13.2767 -5.5869,-17.2623 -6.2112,-3.9457 -14.4525,-3.6683 -21.4837,-1.7538 -6.9564,0.7843 -12.1029,-5.3746 -14.5063,-10.7042 -3.2295,-9.0023 4.4492,-17.1907 3.9801,-26.0796 -0.553,-3.8364 -4.9764,-5.1479 -8.6458,-4.5599 l 0.002,2e-4 c -0.5241,0.084 -1.033,0.207 -1.5129,0.3668 -8.6881,2.275 -12.5455,11.3462 -14.4874,18.7928 z" />
	<path
   style="fill:#c87137"
   id="path1188"
   d="m 431.2216,71.1912 c -5.9227,1.0628 -10.687,4.7747 -15.705,7.7832 -2.9822,2.1496 -6.6067,0.7189 -9.9254,0.8181 -11.7159,1.2007 -19.6973,14.1159 -17.6778,25.2693 4.3881,-1.5473 7.4184,-6.0144 12.1486,-6.8759 5.9356,-0.9919 12.2191,-2.4717 16.7386,-6.7164 2.3094,-1.6964 4.6248,-4.6257 7.8382,-3.7954 6.6595,1.9717 12.8061,6.4156 20.0838,5.575 4.0495,-0.6924 8.8892,-1.5401 11.0803,-5.4389 1.6995,-4.2728 -0.7696,-9.1489 -4.3231,-11.6552 -4.9431,-3.724 -11.3492,-6.3345 -17.5957,-5.5262 l 1e-4,-1e-4 c -0.8923,0.1156 -1.7814,0.3007 -2.6626,0.5625 z" />
	<path
   style="fill:#c87137"
   id="path1190"
   d="m 480.2364,95.6095 c -7.2927,5.7 -14.7233,11.2271 -22.0523,16.8777 -6.0185,4.7895 -11.4738,10.7936 -13.9406,18.2112 7.0264,-6.0802 14.3588,-12.2623 23.2589,-15.3585 5.1999,-1.6703 10.8051,-1.0887 16.0447,-2.5907 6.9444,-1.6374 13.6181,-5.4551 17.6361,-11.4792 3.6026,-5.145 4.5158,-11.7076 3.9308,-17.8433 -0.3807,-8.3607 -9.5269,-14.0781 -17.3455,-13.013 l 10e-5,2e-4 c -5.6003,1.2525 -11.0486,4.9623 -13.2711,10.3905 -1.941,4.7831 1.0096,9.9754 4.7272,12.9601 0.3272,0.4914 1.9717,1.2051 1.0117,1.845 z" />
	<path
   style="fill:#c87137"
   id="path1192"
   d="m 421.8037,95.1897 c -6.5149,2.4438 -15.3856,10.1078 -10.9461,17.6606 4.6874,4.36 12.4914,2.6676 17.5784,-0.0131 2.7275,-3.3135 8.0065,-7.6063 4.9128,-12.2504 -1.6767,-3.7531 -5.6711,-6.5381 -9.7825,-5.8911 v -6e-4 c -0.5873,0.0924 -1.1768,0.2549 -1.7626,0.4946 z" />
	<path
   style="fill:#c87137"
   id="path1194"
   d="m 432.2257,117.3669 c -3.5632,6.1453 -1.131,13.251 -0.5867,19.8004 3.0121,-7.1749 9.2649,-12.3394 15.2021,-17.1864 7.5152,-6.2318 9.583,-17.2961 6.7089,-26.2647 -2.8661,4.0178 -4.9673,8.6029 -8.3801,12.2229 -4.4158,3.6374 -10.4998,5.8426 -12.9442,11.4278 z" />
	<polygon
   style="fill:#c87137"
   id="polygon1196"
   points="453.5503,93.7159 453.5499,93.7156 453.55,93.7162 " />
	<path
   style="fill:#c87137"
   id="path1198"
   d="m 350.3494,133.7491 c -3.31,4.0349 -1.7314,10.7728 2.929,13.0589 4.9164,2.3559 10.6093,1.8518 15.8267,1.0376 5.4995,-0.9739 11.8677,-3.7112 16.9943,-0.2079 4.7804,3.8844 7.5342,9.6652 11.7983,14.05 2.6021,2.0173 5.8586,2.9613 9.0604,3.504 10.8791,1.4745 21.8551,-1.2746 32.7325,0.1368 1.6428,0.3343 0.7529,-0.7304 0.3146,-1.2083 -10.9635,-12.6524 -26.1448,-20.5513 -40.7534,-28.2042 -11.186,-5.1904 -23.3541,-11.4497 -36.0031,-9.6504 l 0.007,0.004 c -0.4081,0.0581 -0.8164,0.1247 -1.2255,0.1998 -4.4788,1.1929 -8.6741,3.7352 -11.6809,7.2798 z" />
	<path
   style="fill:#c87137"
   id="path1200"
   d="m 481.1394,154.2741 c 3.4108,-5.3551 6.8943,-11.5138 13.1201,-13.92 4.8916,-1.3911 9.4166,-5.8976 8.8219,-11.2757 0.0272,-3.1398 -3.1852,-4.3165 -5.9749,-4.294 l 1e-4,-3e-4 c -0.6438,0.005 -1.265,0.0741 -1.8188,0.1978 -5.6892,0.7116 -10.7439,3.6097 -16.2007,5.1564 -6.4606,2.2935 -13.2577,0.9849 -19.7755,-0.2379 -13.9207,-0.6954 -23.6306,11.095 -33.0304,19.3636 10.6525,0.5069 18.798,8.1259 28.3169,11.8719 8.8975,3.9223 21.2976,1.9539 26.5413,-6.8618 z" />
	<path
   style="fill:#c87137"
   id="path1202"
   d="m 312.721,161.1849 c -0.631,12.3342 9.4558,21.389 12.1998,32.8084 0.26,3.556 0.1213,7.1367 0.4538,10.6937 4.4852,-1.1171 8.4726,-4.4232 13.2977,-3.9231 16.869,0.788 30.5428,12.035 46.3399,16.5722 13.2437,4.3685 28.865,3.225 40.0984,-5.5122 7.9561,-5.787 11.3853,-16.6313 8.5356,-25.9913 -0.5749,-1.9996 -2.0086,-3.8095 -4.0283,-4.4588 -4.7639,-0.8341 -9.6449,-0.7071 -14.403,-1.5805 -11.2771,-2.6901 -21.5889,-8.9633 -29.3782,-17.5256 -2.5871,-3.0113 -6.5391,-5.0995 -10.5879,-4.5212 -4.8398,1.0701 -9.6632,2.224 -14.5083,3.2565 -9.7584,1.5685 -19.4867,-1.9109 -27.7131,-6.943 -4.7955,-2.1086 -9.4187,-6.5417 -14.8336,-6.0226 l 7e-4,2e-4 c -4.8713,2.1864 -4.9286,8.5915 -5.4735,13.1473 z" />
	<path
   style="fill:#c87137"
   id="path1204"
   d="m 531.2413,148.6075 c -4.2038,1.5879 -6.9069,5.503 -9.48,8.9679 -4.4951,6.5145 -8.6705,13.2592 -13.4893,19.5462 -6.4412,8.1213 -16.2479,13.6689 -26.6682,14.2987 -13.5566,1.1556 -26.7608,-3.6028 -38.6941,-9.5713 -0.5053,1.8229 -0.7697,3.7199 -0.7134,5.6145 1.165,12.5068 6.2145,24.8561 15.1233,33.8568 6.1234,6.6949 15.0389,10.9133 24.1737,10.7502 10.8907,-0.4975 22.8657,-1.7657 31.0959,-9.7449 5.4593,-5.8036 10.1809,-12.2801 15.2278,-18.4411 1.8652,-2.0336 4.3366,-3.4076 6.931,-4.2815 7.3907,-3.3027 14.7347,-8.228 18.1808,-15.8297 4.4854,-10.0266 1.6583,-22.4607 -5.8186,-30.3038 -3.4619,-3.6674 -8.678,-5.9212 -13.7228,-5.3053 v -4e-4 c -0.7207,0.088 -1.4379,0.2342 -2.1461,0.4437 z" />
	<path
   style="fill:#c87137"
   id="path1206"
   d="m 549.4201,148.4351 c 0.1906,2.5945 3.6678,3.2181 5.238,4.8849 3.9949,3.6737 5.577,9.3331 5.8564,14.6066 0.3684,4.3793 -2.1542,8.3752 -2.8091,12.5141 2.2262,2.8888 5.6214,4.7125 9.0938,5.8696 l 2e-4,2e-4 c 0.8012,0.2671 1.6067,0.4985 2.4028,0.6995 6.4556,1.1063 12.6815,-2.1426 17.6179,-6.004 5.437,-4.5933 10.9677,-9.1075 16.2548,-13.8566 -4.2614,-2.4186 -8.5489,-4.7946 -12.8049,-7.2188 -5.5156,-4.0085 -11.011,-8.1093 -17.0155,-11.3711 -7.5401,-2.9934 -16.2821,-3.2214 -23.8344,-0.1244 z" />
	<path
   style="fill:#c87137"
   id="path1208"
   d="m 534.8811,136.5899 c -1.4229,2.0332 -5.054,3.2463 -4.8524,6.0583 8.5836,2.1389 17.9224,0.526 25.5395,-3.8644 5.9282,-4.4378 11.1793,-9.6955 16.4666,-14.8574 4.1846,-3.2658 8.4104,-6.4848 12.6016,-9.7455 -6.4131,-4.2651 -13.0505,-8.2403 -19.6,-12.3148 -5.898,-3.368 -13.0828,-5.8774 -19.8323,-3.6806 -0.8223,0.3401 -1.6497,0.7144 -2.4672,1.1262 l -10e-5,2e-4 c -3.5426,1.7844 -6.898,4.2715 -8.8331,7.7178 1.3503,4.3358 4.6808,8.2259 4.9712,12.9798 0.5259,5.699 -0.285,12.0155 -3.9938,16.5804 z" />
	<path
   style="fill:#c87137"
   id="path1210"
   d="m 302.6819,143.9181 c 1.9577,-0.0465 4.2137,-0.6447 5.17,-2.5217 0.7006,-2.7117 -1.1591,-5.2536 -2.6497,-7.3335 -5.2388,-6.0734 -8.9809,-14.2882 -7.5212,-22.447 0.1703,-2.8587 2.1895,-5.6146 2.5797,-8.0886 l -0.003,-5e-4 c -7.2953,-6.989 -18.6785,-7.8036 -27.6664,-3.8236 -6.7697,2.953 -13.4915,6.287 -19.5008,10.5711 2.3658,1.6014 5.453,2.0112 7.5575,4.0452 4.5612,4.4752 6.8445,10.6724 11.2421,15.2936 7.432,9.0835 19.0646,14.4841 30.7914,14.305 z" />
	<path
   style="fill:#c87137"
   id="path1212"
   d="m 302.7097,180.8266 10e-4,-1e-4 c 0.5981,-0.0504 1.196,-0.1277 1.7925,-0.2333 2.6789,-0.2758 5.5506,-2.0786 5.6305,-5.0387 0.0115,-3.3363 -1.3882,-6.4635 -1.7675,-9.7532 -0.5837,-6.1185 -0.3343,-12.5033 2.0167,-18.246 -3.4714,-0.2419 -6.9629,-0.4712 -10.4442,-0.5403 -9.8624,1.0785 -16.9824,8.431 -25.0129,13.4178 -0.9085,0.6547 -2.7754,1.7058 -2.0368,3.059 3.3757,5.2144 8.0257,9.5783 13.4024,12.682 4.8229,3.121 10.636,5.1399 16.4182,4.6528 z" />
	<path
   style="fill:#c87137"
   id="path1214"
   d="m 463.8492,251.5224 c -4.836,-8.8829 -24.4789,-16.1843 -34.0579,0 -9.5782,-16.1843 -29.2212,-8.8829 -34.057,0 -14.9175,26.1257 34.057,60.6076 34.057,60.6076 0,0 48.9746,-34.4819 34.0579,-60.6076 z" />
	<path
   style="fill:#c87137"
   id="path1216"
   d="m 536.2446,734.4915 c 0,7.3399 23.7862,34.1876 23.7862,34.1876 0,0 22.9808,-24.4678 23.2496,-33.651 0.2687,-9.1832 -23.7863,-33.6923 -23.7863,-33.6923 0,0 -23.2495,25.8159 -23.2495,33.1557 z" />
	<path
   style="fill:#c87137"
   id="path1218"
   d="m 267.1124,734.4915 c 0,7.3399 23.7861,34.1876 23.7861,34.1876 0,0 22.9809,-24.4678 23.2496,-33.651 0.2687,-9.1832 -23.7862,-33.6923 -23.7862,-33.6923 0,0 -23.2495,25.8159 -23.2495,33.1557 z" />
	<path
   style="fill:#c87137"
   id="path1220"
   d="m 477.1963,288.8439 c 14.8331,-10.0406 33.2919,-22.5374 32.5374,-28.8932 -0.1635,-1.3776 -1.1483,-2.4146 -2.9293,-3.0821 -16.1362,-6.054 -38.4395,21.7325 -47.3231,44.3164 l 0.9181,0.3715 c 0.7768,-1.8671 8.5586,-7.1355 16.7969,-12.7126 z" />
	<path
   style="fill:#c87137"
   id="path1222"
   d="m 549.512,281.4269 c 0.623,-4.6609 -1.7791,-10.6123 -10.5969,-12.045 -17.4905,-2.8519 -53.0345,20.1586 -58.7906,34.9375 l -0.7903,2.0286 1.5904,-1.4869 c 5.5219,-5.164 30.3723,-13.59 49.8654,-11.5478 10.977,1.1493 17.8378,-5.2646 18.722,-11.8864 z" />
	<path
   style="fill:#c87137"
   id="path1224"
   d="m 400.9772,302.4978 0.9181,-0.3715 c -8.8846,-22.5858 -31.1859,-50.3684 -47.3231,-44.3164 -1.78,0.6675 -2.7658,1.7045 -2.9293,3.0821 -0.7546,6.3548 17.7043,18.8516 32.5364,28.8922 8.2393,5.578 16.021,10.8465 16.7979,12.7136 z" />
	<path
   style="fill:#c87137"
   id="path1226"
   d="m 382.0423,307.2893 -0.7903,-2.0286 c -5.756,-14.7789 -41.2923,-37.7971 -58.7906,-34.9375 -8.8178,1.4318 -11.2198,7.3832 -10.5969,12.0431 0.8852,6.6218 7.7614,13.0366 18.722,11.8873 19.492,-2.0412 44.3435,6.3839 49.8654,11.5488 z" />
	
		<ellipse
   style="fill:#c87137"
   id="ellipse1228"
   ry="11.4807"
   rx="11.4808"
   cy="579.40942"
   cx="216.2728"
   transform="matrix(0.7254,-0.6883,0.6883,0.7254,-339.4321,307.9665)" />
	<ellipse
   style="fill:#c87137"
   id="ellipse1230"
   ry="7.375"
   rx="7.3751001"
   cy="635.17383"
   cx="249.912"
   transform="matrix(0.1802,-0.9836,0.9836,0.1802,-419.901,766.5218)" />
	
		<circle
   style="fill:#c87137"
   r="9.9604998"
   id="ellipse1232"
   cy="610.15558"
   cx="232.5735"
   transform="matrix(0.9686,-0.2487,0.2487,0.9686,-144.4169,76.9966)" />
	<path
   style="fill:#c87137"
   id="path1234"
   d="m 533.7145,499.2582 c -1.5237,0.6007 -2.3575,1.5081 -2.4785,2.6971 -0.5562,5.4842 15.5219,15.9766 28.4405,24.4064 7.1761,4.6832 13.9547,9.1071 14.6512,10.7032 l 0.7855,-0.3328 c -7.9801,-19.3188 -27.594,-42.9232 -41.3987,-37.4739 z" />
	<path
   style="fill:#c87137"
   id="path1236"
   d="m 626.3503,526.8842 c 8.8052,-3.5803 11.4153,-11.2392 9.4002,-16.6286 -1.4182,-3.7922 -5.6573,-7.3416 -12.9389,-4.8505 -14.4578,4.9444 -32.1098,36.8365 -30.4855,50.3994 l 0.2234,1.8622 0.6036,-1.7752 c 2.1003,-6.1643 17.5622,-22.6525 33.1972,-29.0073 z" />
	<path
   style="fill:#c87137"
   id="path1238"
   d="m 592.326,488.998 c -1.6707,-2.1892 -4.0341,-3.2127 -7.0465,-3.0222 -3.087,0.1886 -5.4958,1.5633 -7.1578,4.0853 -9.0568,13.7448 6.3268,57.0918 6.9865,58.9308 l 0.2932,0.8174 0.2795,-0.8223 c 0.6608,-1.9395 16.0695,-47.6392 6.6451,-59.989 z" />
	<path
   style="fill:#c87137"
   id="path1240"
   d="m 281.7089,537.065 c 0.6965,-1.5962 7.4751,-6.0201 14.6512,-10.7032 12.9196,-8.4308 28.9977,-18.9223 28.4405,-24.4064 -0.12,-1.1889 -0.9539,-2.0963 -2.4775,-2.6971 -13.8096,-5.4493 -33.4187,18.1541 -41.3997,37.474 z" />
	<path
   style="fill:#c87137"
   id="path1242"
   d="m 235.6774,503.6647 c -7.2845,-2.493 -11.5197,1.0574 -12.9379,4.8496 -2.0151,5.3893 0.595,13.0482 9.4002,16.6285 15.6351,6.3548 31.0969,22.8431 33.1971,29.0073 l 0.6037,1.7742 0.2234,-1.8613 c 1.6242,-13.5628 -16.0279,-45.4549 -30.4865,-50.3983 z" />
	<path
   style="fill:#c87137"
   id="path1244"
   d="m 272.2585,548.0682 0.2931,-0.8174 c 0.6598,-1.8391 16.0433,-45.1861 6.9856,-58.9299 -1.662,-2.522 -4.0699,-3.8967 -7.1578,-4.0853 -2.998,-0.1906 -5.3748,0.832 -7.0465,3.0222 -9.4234,12.3488 5.9853,58.0486 6.646,59.9882 z" />
</g>
</svg>