<?xml version="1.0" encoding="utf-8"?>
<!-- Generator: Adobe Illustrator 23.1.1, SVG Export Plug-In . SVG Version: 6.00 Build 0)  -->
<svg version="1.1" id="Layer_1" xmlns="http://www.w3.org/2000/svg" xmlns:xlink="http://www.w3.org/1999/xlink" x="0px" y="0px"
	 viewBox="0 0 1000 1136" style="enable-background:new 0 0 1000 1136;" xml:space="preserve">
<style type="text/css">
	.st0{fill:#FFFFFF;}
	.st1{fill:none;}
</style>
<g>
	<g>
		<g>
			<g>
				<path class="st0" d="M139.3,852.4h-22.6v-6.3h22.6V852.4z M137.7,866.4h-21v-6.2h21V866.4z M139.6,874.2v6.2h-22.9v-6.2H139.6z"
					/>
				<path class="st0" d="M172,846.1v34.4h-6.4l-13.8-22.3v22.3h-6.5v-34.4h6.4l13.9,22.3v-22.3H172z"/>
				<path class="st0" d="M199,874.2v6.2h-20.6v-34.4h6.5v28.2H199z"/>
				<path class="st0" d="M210.5,846.1v34.4h-6.5v-34.4H210.5z"/>
				<path class="st0" d="M246.8,861.9v11c-2.9,4.9-7.9,8-14.3,8c-9.9,0-16.7-7.7-16.7-17.5c0-9.9,6.8-17.5,16.7-17.5
					c6.3,0,11.4,3.1,14.3,8.1l-5.9,2.9c-1.7-2.8-4.5-4.5-8.3-4.5c-6.3,0-10,4.7-10,11c0,6.2,3.7,11,10,11c3.3,0,5.9-1.2,7.7-3.3
					v-3.8h-7.6v-5.3H246.8z"/>
				<path class="st0" d="M279.9,846.1v34.4h-6.5v-14.1h-13.9v14.1H253v-34.4h6.5v14.1h13.9v-14.1H279.9z"/>
				<path class="st0" d="M310.1,852.4h-9.2v28.1h-6.5v-28.1h-9.2v-6.3h25V852.4z"/>
				<path class="st0" d="M337.8,852.4h-22.6v-6.3h22.6V852.4z M336.3,866.4h-21v-6.2h21V866.4z M338.1,874.2v6.2h-22.9v-6.2H338.1z"
					/>
				<path class="st0" d="M370.5,846.1v34.4h-6.4l-13.8-22.3v22.3h-6.5v-34.4h6.4l13.9,22.3v-22.3H370.5z"/>
				<path class="st0" d="M399.5,852.4h-22.6v-6.3h22.6V852.4z M398,866.4h-21v-6.2h21V866.4z M399.8,874.2v6.2h-22.9v-6.2H399.8z"/>
				<path class="st0" d="M434.5,863.3c0,10.1-6.6,17.2-18,17.2h-11.1v-34.4h11.1C427.9,846.1,434.5,853.2,434.5,863.3z M428,863.3
					c0-6.5-4.4-10.9-11.6-10.9H412v21.9h4.4C423.6,874.2,428,869.9,428,863.3z"/>
				<path class="st0" d="M476,852.4h-22.6v-6.3H476V852.4z M474.5,866.4h-21v-6.2h21V866.4z M476.3,874.2v6.2h-22.9v-6.2H476.3z"/>
				<path class="st0" d="M502.6,874.2v6.2h-20.6v-34.4h6.5v28.2H502.6z"/>
				<path class="st0" d="M514,846.1v34.4h-6.5v-34.4H514z"/>
				<path class="st0" d="M544.2,852.4H535v28.1h-6.5v-28.1h-9.2v-6.3h25V852.4z"/>
				<path class="st0" d="M571.9,852.4h-22.6v-6.3h22.6V852.4z M570.4,866.4h-21v-6.2h21V866.4z M572.2,874.2v6.2h-22.9v-6.2H572.2z"
					/>
				<path class="st0" d="M614.2,852.4h-22.6v-6.3h22.6V852.4z M612.7,866.4h-21v-6.2h21V866.4z M614.5,874.2v6.2h-22.9v-6.2H614.5z"
					/>
				<path class="st0" d="M643.9,869.9l5.9,2.9c-2.8,4.9-7.9,8.1-14.3,8.1c-9.9,0-16.7-7.7-16.7-17.5c0-9.9,6.8-17.5,16.7-17.5
					c6.3,0,11.5,3.1,14.3,8.1l-5.9,2.9c-1.7-2.8-4.6-4.5-8.4-4.5c-6.2,0-10,4.7-10,11c0,6.2,3.7,11,10,11
					C639.4,874.3,642.2,872.6,643.9,869.9z"/>
				<path class="st0" d="M681.4,846.1v34.4h-6.5v-14.1H661v14.1h-6.5v-34.4h6.5v14.1h13.9v-14.1H681.4z"/>
				<path class="st0" d="M710.4,852.4h-22.6v-6.3h22.6V852.4z M708.9,866.4h-21v-6.2h21V866.4z M710.7,874.2v6.2h-22.9v-6.2H710.7z"
					/>
				<path class="st0" d="M737,874.2v6.2h-20.6v-34.4h6.5v28.2H737z"/>
				<path class="st0" d="M772.3,863.3c0,9.9-6.8,17.5-16.7,17.5c-9.9,0-16.7-7.7-16.7-17.5c0-9.9,6.8-17.5,16.7-17.5
					C765.5,845.8,772.3,853.5,772.3,863.3z M765.6,863.3c0-6.3-3.7-11-10-11c-6.3,0-10,4.7-10,11c0,6.2,3.7,11,10,11
					C761.9,874.3,765.6,869.6,765.6,863.3z"/>
				<path class="st0" d="M804.2,846.1v34.4h-6.4L784,858.2v22.3h-6.5v-34.4h6.4l13.9,22.3v-22.3H804.2z"/>
				<path class="st0" d="M856.5,863.3c0,9.9-6.8,17.5-16.7,17.5s-16.7-7.7-16.7-17.5c0-9.9,6.8-17.5,16.7-17.5
					S856.5,853.5,856.5,863.3z M849.8,863.3c0-6.3-3.7-11-10-11c-6.3,0-10,4.7-10,11c0,6.2,3.7,11,10,11
					C846.1,874.3,849.8,869.6,849.8,863.3z"/>
				<path class="st0" d="M868.2,852.4v7.8H881v6.2h-12.7v14.1h-6.5v-34.4h22.6v6.3H868.2z"/>
			</g>
			<g>
				<path class="st0" d="M192.8,926h-75.3v-21h75.3V926z M187.7,972.9h-70.2v-20.8h70.2V972.9z M193.8,999v20.8h-76.3V999H193.8z"/>
				<path class="st0" d="M295.4,984.4l19.7,9.8c-9.4,16.2-26.4,26.9-47.6,26.9c-33,0-55.6-25.6-55.6-58.6s22.6-58.6,55.6-58.6
					c21.2,0,38.2,10.5,47.6,26.9l-19.7,9.8c-5.7-9.2-15.3-14.9-27.9-14.9c-20.8,0-33.3,15.8-33.3,36.8c0,20.8,12.5,36.6,33.3,36.6
					C280.1,999.2,289.6,993.6,295.4,984.4z"/>
				<path class="st0" d="M421.1,905v69.8c0,28.7-17.4,46.4-44,46.4c-26.8,0-44-17.7-44-46.4V905h21.8v69.3
					c0,15.4,8.4,24.9,22.2,24.9c13.6,0,22.2-9.5,22.2-24.9V905H421.1z"/>
				<path class="st0" d="M505.1,993.9h-38.9l-8.9,25.9h-24.8l42-114.9h22.3l42,114.9h-24.8L505.1,993.9z M497.9,973.1l-12.1-35.3
					l-12.1,35.3H497.9z"/>
				<path class="st0" d="M653.3,962.4c0,33.6-22.2,57.4-60.2,57.4h-36.9V905h36.9C631.2,905,653.3,928.8,653.3,962.4z M631.5,962.4
					c0-21.8-14.8-36.4-38.9-36.4H578v73h14.6C616.7,999,631.5,984.4,631.5,962.4z"/>
				<path class="st0" d="M781.2,962.6c0,33-22.6,58.6-55.6,58.6c-33,0-55.8-25.6-55.8-58.6s22.8-58.6,55.8-58.6
					C758.5,904,781.2,929.6,781.2,962.6z M758.9,962.6c0-21-12.5-36.8-33.3-36.8c-21,0-33.5,15.8-33.5,36.8
					c0,20.8,12.5,36.6,33.5,36.6C746.4,999.2,758.9,983.4,758.9,962.6z"/>
				<path class="st0" d="M839.4,980.4h-15.9v39.4h-21.8V905h42.5c25.6,0,39.9,16.7,39.9,37.7c0,15.4-7.5,28.6-21.8,34.5l24.6,42.7
					h-24.6L839.4,980.4z M823.5,959.6h20.2c10.8,0,17.7-7.1,17.7-16.9c0-9.8-6.9-16.7-17.7-16.7h-20.2V959.6z"/>
			</g>
		</g>
		<g>
			<path class="st0" d="M386.3,569.1c20.6,10.8,69.3,23.1,98.4,23.1c46.2,0,83.7,37.5,83.7,83.7c0,9.7-1.7,18.9-4.7,27.6
				c-24.5-11.9-52.1-18.6-81.2-18.6c-54.6,0-96.1-6.3-130.4-26.8l0,0C321,639.7,300,605.7,300,566.7c0-33.6,15.6-63.6,40-83
				c-0.3,3-0.5,6.1-0.5,9.2C339.6,526.2,358.6,555,386.3,569.1z"/>
			<path class="st0" d="M618.7,426.2L618.7,426.2c-12.1-6.7-24.8-12.3-38-16.9c-0.7-15.6-11.2-28.6-25.5-33c-14.3-4-29.4-6.2-45-6.2
				c-47.3,0-90,19.9-120.1,51.8c33.2-16.6,70.6-26,110.2-26c20.2,0,39.8,2.4,58.6,7l-16.5,6h0l-18.9,6.9l-9.3-9.3c-1,0-2,0-3,0
				c-67.3,0-126.6,33.7-162.3,85c0,0.5,0,1,0,1.5c0,21.4,8.8,41.2,23.9,55.4c31.3-58.6,93.1-98.5,164.1-98.5
				c24.5,0,47.9,4.8,69.4,13.4c9.2,3.9,15.6,13,15.6,23.6c0,1.5-0.1,2.9-0.4,4.4c10.6-6.6,17.7-18.4,17.7-31.8
				C639.2,445,630.9,432.3,618.7,426.2z"/>
			<path class="st0" d="M390.6,560.8L390.6,560.8c13.2,6.9,40.1,14.9,64.6,19.1c11.9-51.7,45.4-95.1,90.4-120.4
				c-2.9-0.1-5.7-0.2-8.6-0.2c-42.1,0-82.8,15-114.7,42.3c-17.4,14.9-31.6,32.9-42,52.8C383.5,556.8,386.9,558.9,390.6,560.8
				L390.6,560.8z"/>
			<path class="st0" d="M505,585.1c-4.9-13.4-7.6-27.8-7.6-42.9c0-12.3,1.8-24.2,5.1-35.5c-6.6,7.6-12.5,15.8-17.7,24.6
				c-9.3,15.6-16.1,32.5-20.3,50c7.3,1,14.2,1.5,20.2,1.5C491.7,582.8,498.4,583.6,505,585.1z"/>
			<path class="st0" d="M602.7,472c-13.2-5.3-26.8-9-40.8-10.9l-11.8,6.6c-2.1,1.2-4.2,2.4-6.3,3.7c17.4,0.7,34.1,4.1,49.7,9.8
				l0.9,0.3c2.1,0.7,4.3,1,6.6,1c3.6,0,7-0.9,10-2.5C609.4,476.5,606.5,473.6,602.7,472z"/>
			<path class="st0" d="M557.9,367.3l0.1,0c16.2,5,28.2,18.7,31.3,35.1c10.2,3.8,20.1,8.2,29.7,13.2c4.3-3.9,7-9.4,7-15.6
				c0-11.6-9.4-21.1-21.1-21.1c-10.3-0.8-18.6-9-19.5-19.2v0c-0.7-15.9-13.8-28.6-30-28.6c-16.6,0-30,13.4-30,30c0,0.1,0,0.2,0,0.3
				c10.9,0.9,21.8,2.9,32.3,5.9L557.9,367.3z"/>
		</g>
		<g>
			<path class="st0" d="M619.1,595.7l16.3,27.3l23.1-31.7l-25.4-4.8L619.1,595.7z M641.1,598.2l-4.9,6.7l-3.7-6.1l2.6-1.7
				L641.1,598.2z"/>
			<path class="st0" d="M640.6,570.3l22.3-10.1l-28.5-24.3l-16.8,21L640.6,570.3z M644.5,557.5l-3.3,1.5l-8.6-5l3.1-3.9L644.5,557.5
				z"/>
			<polygon class="st0" points="611.5,626.4 616.9,647.4 603.2,666.8 603.2,611.7 613.5,606.8 610.6,598.2 591.6,603.5 591.6,703.4 
				629.6,649.4 618.6,615.2 			"/>
			<polygon class="st0" points="614.8,548.7 600.8,541.9 600.8,523.4 611.7,530.9 609.8,541.8 618.2,540.3 621.4,526.4 589.2,500.1 
				589.2,549.3 608.1,556.6 			"/>
			<path class="st0" d="M629,582.6l1.3,1l9-6.7l-2.1-1.7c-0.8-0.7-19.9-16.5-46-16.5c-28.5,0-48.9,19-49.7,19.8l-3.4,3.2l15.1,1.5
				l0.7-0.5c0.2-0.2,19.7-15.1,37.4-15.1C609,567.5,628.9,582.5,629,582.6z"/>
			<path class="st0" d="M619.8,582.6l-11-4.8l-1,0.6c-0.1,0.1-9.1,5.6-16.5,5.6c-7.4,0-14.9-4.8-15-4.9l-1-0.7l-11.4,5.8l2.7,2.1
				c0.4,0.3,10.9,8.3,24.7,8.3c13.8,0,25.3-9.3,25.8-9.7L619.8,582.6z"/>
		</g>
		<g>
			<path class="st0" d="M292.9,720.8v22.1h-4.2v-22.1H292.9z"/>
			<path class="st0" d="M321.1,720.8v22.1H317l-8.9-14.3v14.3h-4.2v-22.1h4.1l8.9,14.3v-14.3H321.1z"/>
			<path class="st0" d="M358.5,720.8v14.6c0,5.6-2.6,7.8-6.4,7.8c-2.5,0-4.4-1.2-5.4-2.4l2.5-3c0.4,0.4,1.3,1.3,2.7,1.2
				c1.5-0.1,2.5-1.2,2.5-3.2v-15H358.5z"/>
			<path class="st0" d="M381.1,738h-7.5l-1.7,5h-4.8l8.1-22.1h4.3l8.1,22.1h-4.8L381.1,738z M379.7,733.9l-2.3-6.8l-2.3,6.8H379.7z"
				/>
			<path class="st0" d="M404.5,735.4h-3.1v7.6h-4.2v-22.1h8.2c4.9,0,7.7,3.2,7.7,7.3c0,3-1.5,5.5-4.2,6.6l4.7,8.2h-4.7L404.5,735.4z
				 M401.5,731.4h3.9c2.1,0,3.4-1.4,3.4-3.3c0-1.9-1.3-3.2-3.4-3.2h-3.9V731.4z"/>
			<path class="st0" d="M441.7,720.8l-8,22.1h-4.3l-8-22.1h4.7l5.5,15.8l5.5-15.8H441.7z"/>
			<path class="st0" d="M455.5,720.8v22.1h-4.2v-22.1H455.5z"/>
			<path class="st0" d="M482.4,736.5c0,3.7-2.6,6.8-8.1,6.8c-4.3,0-8.2-2.3-8.9-5.5l3.9-1.5c0.4,1.7,2.3,2.7,4.6,2.7
				c2.6,0,3.9-1,3.9-2.4c0-1.3-1.1-1.9-4.7-3c-5.1-1.5-7.2-3.4-7.2-6.7c0-2.9,2.1-6.4,7.8-6.4c3.4,0,6.8,1.8,7.5,5l-3.7,1.4
				c-0.3-1.4-2.1-2.1-3.7-2.2c-1.8,0-3.4,0.6-3.4,2.1c0,1,0.8,1.7,4.3,2.8C479.2,731,482.4,732.4,482.4,736.5z"/>
			<path class="st0" d="M539.1,720.8l-7.3,22.1h-4.1l-4.7-14.7l-4.7,14.7h-4.2l-7.2-22.1h4.7l4.7,15l4.7-15h4l4.7,15l4.7-15H539.1z"
				/>
			<path class="st0" d="M563.2,724.9h-14.5v-4h14.5V724.9z M562.3,733.9h-13.5v-4h13.5V733.9z M563.4,738.9v4h-14.7v-4H563.4z"/>
			<path class="st0" d="M605.1,724.9h-5.9v18.1H595v-18.1H589v-4h16.1V724.9z"/>
			<path class="st0" d="M622.6,735.4h-3.1v7.6h-4.2v-22.1h8.2c4.9,0,7.7,3.2,7.7,7.3c0,3-1.5,5.5-4.2,6.6l4.7,8.2H627L622.6,735.4z
				 M619.6,731.4h3.9c2.1,0,3.4-1.4,3.4-3.3c0-1.9-1.3-3.2-3.4-3.2h-3.9V731.4z"/>
			<path class="st0" d="M658.3,720.8v13.4c0,5.5-3.3,8.9-8.5,8.9c-5.1,0-8.5-3.4-8.5-8.9v-13.4h4.2v13.3c0,3,1.6,4.8,4.3,4.8
				c2.6,0,4.3-1.8,4.3-4.8v-13.3H658.3z"/>
			<path class="st0" d="M685.1,736.5c0,3.7-2.6,6.8-8.1,6.8c-4.3,0-8.2-2.3-8.9-5.5l3.9-1.5c0.4,1.7,2.3,2.7,4.6,2.7
				c2.6,0,3.9-1,3.9-2.4c0-1.3-1.1-1.9-4.7-3c-5.1-1.5-7.2-3.4-7.2-6.7c0-2.9,2.1-6.4,7.8-6.4c3.4,0,6.8,1.8,7.5,5l-3.7,1.4
				c-0.3-1.4-2.1-2.1-3.7-2.2c-1.8,0-3.4,0.6-3.4,2.1c0,1,0.8,1.7,4.3,2.8C681.8,731,685.1,732.4,685.1,736.5z"/>
			<path class="st0" d="M709.5,724.9h-5.9v18.1h-4.2v-18.1h-5.9v-4h16.1V724.9z"/>
		</g>
		<g>
			<circle class="st0" cx="736.9" cy="732.8" r="5.4"/>
			<circle class="st0" cx="263.5" cy="732.8" r="5.4"/>
		</g>
		<path class="st0" d="M500,116.2L116.6,780.6h766.7L500,116.2z M829.5,760.7H170.9l151.4-87.7c-5.5-4.3-10.6-9.1-15.3-14.1
			l-146,84.6l329-570.2v168.7c6.6-0.7,13.2-1.1,19.9-1.1V173.2l328.8,569.9l-145.5-84.3c-4.7,5.1-9.8,9.8-15.3,14.1L829.5,760.7z"/>
	</g>
	<rect x="116.6" y="116.2" class="st1" width="766.7" height="903.7"/>
	<circle class="st1" cx="500" cy="1078.2" r="58.3"/>
	<circle class="st1" cx="500" cy="57.8" r="58.3"/>
	<circle class="st1" cx="941.7" cy="559.4" r="58.3"/>
	<circle class="st1" cx="58.3" cy="559.4" r="58.3"/>
	<rect x="0" y="-0.5" class="st1" width="1000" height="1136.9"/>
</g>
</svg>
